<?xml version="1.0" encoding="utf-8"?>
<!-- Generator: Adobe Illustrator 21.1.0, SVG Export Plug-In . SVG Version: 6.00 Build 0)  -->
<svg version="1.1" id="Слой_1" xmlns="http://www.w3.org/2000/svg" xmlns:xlink="http://www.w3.org/1999/xlink" x="0px" y="0px"
	 viewBox="0 0 115 99.8" style="enable-background:new 0 0 115 99.8;" xml:space="preserve">
<style type="text/css">
	.st0{fill:#1A1A45;}
	.st1{fill:#2B2B5D;}
	.st2{fill:url(#SVGID_1_);}
</style>
<g>
	<g>
		<g>
			<g>
				<g>
					<path class="st0" d="M25.5,4.8c1.6-3,3.9-4.5,7.2-4.5C31.2,3.3,28.9,4.7,25.5,4.8z"/>
					<path class="st0" d="M14.4,10.2c0.6,3.1,0.1,5.6-2.4,7.4C11,14.5,11.4,13.2,14.4,10.2z"/>
					<path class="st0" d="M7.4,55C9,58,8,60.4,6.3,62.8C4.7,59.9,5.5,57.4,7.4,55z"/>
					<path class="st0" d="M16.6,13c2.9-3,3.4-3.2,7.3-2.9C21.9,12.9,20.6,13.5,16.6,13z"/>
					<path class="st0" d="M8.7,68.8c-1.9-2.6-1.5-5.1-0.1-7.5C10.4,63.3,10.5,65.5,8.7,68.8z"/>
					<path class="st0" d="M10.6,75.1c-3-0.7-4.9-2.2-5.5-5.3C7.9,70.6,10.1,71.8,10.6,75.1z"/>
					<path class="st0" d="M3.5,28.4c2,3.7,2,3.7,0.5,7.8C2,33.6,1.9,31.6,3.5,28.4z"/>
					<path class="st0" d="M2.8,49.6c-2.4-1.9-3.1-4.3-2.5-7.1C2.8,43.9,3.6,46.1,2.8,49.6z"/>
					<path class="st0" d="M0.4,49.3c2.5,1.8,3.7,4,3,7.1C1.1,54.6-0.5,52.6,0.4,49.3z"/>
					<path class="st0" d="M17.1,86.9c3-0.2,5.6,0.2,7.3,3.1C21.4,90.2,18.8,89.7,17.1,86.9z"/>
					<path class="st0" d="M20.7,7.4C21,4.3,22.2,2,25.3,1C24.9,4,23.8,6.4,20.7,7.4z"/>
					<path class="st0" d="M36.1,96.5c-4.3,1.2-5,1-7.5-1.1C32,94,33.6,94.3,36.1,96.5z"/>
					<path class="st0" d="M34.8,98.5c2.7-1.6,5.3-1.9,7.9,0C38.5,100.3,38.1,100.3,34.8,98.5z"/>
					<path class="st0" d="M15.7,80c-2.5-2-2.5-4.5-1.9-7.4C16.2,74.7,16.7,76.8,15.7,80z"/>
					<path class="st0" d="M9.9,15.9c1.1,2.9,0.9,5.4-1.5,7.5C7.5,20.7,7.4,18.2,9.9,15.9z"/>
					<path class="st0" d="M9.4,24.1c1.5-3.4,1.8-3.7,5.9-4.9C14.6,22.2,13.2,23.4,9.4,24.1z"/>
					<path class="st0" d="M12.5,81.6c3.9,0.3,4.8,0.8,6.7,4C16.2,85.4,13.6,84.8,12.5,81.6z"/>
					<path class="st0" d="M25.2,89c-2.9-1.5-3.7-4-3.7-6.9C24.4,83.7,25,84.9,25.2,89z"/>
					<path class="st0" d="M20,84.7c-2.9-1.8-2.8-4.5-2.8-7.3C19.8,79.2,20.4,80.7,20,84.7z"/>
					<path class="st0" d="M1.6,35.1C4,38.8,4,38.8,3,42.7C0.7,40.7,0.3,38.6,1.6,35.1z"/>
					<path class="st0" d="M30.1,93.5c-2.9,0.8-5.5,0.7-7.5-1.9C25.4,90.8,28,90.9,30.1,93.5z"/>
					<path class="st0" d="M21.3,8.3c2.1-2.5,4.7-2.8,7.5-1.9C26.9,9,24.3,9.2,21.3,8.3z"/>
					<path class="st0" d="M6.7,30.2c0.5-3.3,2.8-4.7,5.6-5.5C11.8,27.9,9.6,29.4,6.7,30.2z"/>
					<path class="st0" d="M2.5,63.3c2.9,1.1,4.8,2.8,5.1,6C4.8,68.3,2.8,66.6,2.5,63.3z"/>
					<path class="st0" d="M30.8,92.5c-3.1-1-4.2-3.3-4.5-6.1C29.1,87.1,30,88.3,30.8,92.5z"/>
					<path class="st0" d="M14.5,80.6c-2.7-0.5-5.2-1.3-6-4.4C11.7,76.2,13.3,77.3,14.5,80.6z"/>
					<path class="st0" d="M4,43.1c-0.3-3.3,1.4-5.2,4-6.7C8.3,39.6,6.7,41.6,4,43.1z"/>
					<path class="st0" d="M6.4,22c1.3,2.8,1.3,5.3-0.8,7.7C4.6,27,4.1,24.4,6.4,22z"/>
					<path class="st0" d="M7,48.9c0.8,2.8,0.1,5.2-2.2,7.1C3.6,52.9,4.2,51.1,7,48.9z"/>
					<path class="st0" d="M5,36.6c0.7-3.9,1.1-4.5,4.6-6.2C9.4,33.8,8.9,34.5,5,36.6z"/>
					<path class="st0" d="M43,97.4c-3.1-0.4-4.9-2.1-5.9-4.9C40.1,92.5,41.5,93.7,43,97.4z"/>
					<path class="st0" d="M11.8,74.6c-2.2-2.4-1.8-4.9-0.9-7.5C13,69.2,13.3,71,11.8,74.6z"/>
					<path class="st0" d="M36.8,95.4c-3.2-0.7-4.6-2.8-5.2-5.8C34.8,90.2,36,92.5,36.8,95.4z"/>
					<path class="st0" d="M19.5,5.4c0,3-0.7,5.4-3.6,6.8C15.8,9.2,16.6,6.8,19.5,5.4z"/>
					<path class="st0" d="M12.9,18.3c1.1-3.2,3.7-3.6,6.6-4C18.1,17.3,15.9,18.4,12.9,18.3z"/>
					<path class="st0" d="M1.1,56.4c2.5,1.5,4.3,3.3,4,6.5C2.4,61.5,0.8,59.6,1.1,56.4z"/>
					<path class="st0" d="M6.9,42.6c0.9,3.3-0.7,5.3-2.9,7.2C3.6,46.2,3.9,45.4,6.9,42.6z"/>
				</g>
			</g>
			<g>
				<g>
					<path class="st0" d="M89.5,4.5C88,1.4,85.6,0,82.3,0C83.8,2.9,86.1,4.4,89.5,4.5z"/>
					<path class="st0" d="M100.7,9.9c-0.6,3.1-0.1,5.6,2.4,7.4C104,14.2,103.6,12.9,100.7,9.9z"/>
					<path class="st0" d="M107.6,54.7c-1.6,3-0.6,5.4,1.1,7.8C110.3,59.6,109.5,57.1,107.6,54.7z"/>
					<path class="st0" d="M98.4,12.7c-2.9-3-3.4-3.2-7.3-2.9C93.1,12.6,94.5,13.2,98.4,12.7z"/>
					<path class="st0" d="M106.3,68.5c1.9-2.6,1.5-5.1,0.1-7.5C104.6,63,104.5,65.2,106.3,68.5z"/>
					<path class="st0" d="M104.5,74.8c3-0.7,4.9-2.2,5.5-5.3C107.2,70.3,105,71.5,104.5,74.8z"/>
					<path class="st0" d="M111.5,28.1c-2,3.7-2,3.7-0.5,7.8C113,33.3,113.2,31.3,111.5,28.1z"/>
					<path class="st0" d="M112.2,49.3c2.4-1.9,3.1-4.3,2.5-7.1C112.2,43.6,111.4,45.8,112.2,49.3z"/>
					<path class="st0" d="M114.7,49c-2.5,1.8-3.7,4-3,7.1C113.9,54.3,115.5,52.3,114.7,49z"/>
					<path class="st0" d="M97.9,86.6c-3-0.2-5.6,0.2-7.3,3.1C93.6,89.9,96.2,89.4,97.9,86.6z"/>
					<path class="st0" d="M94.4,7.1C94,4,92.8,1.7,89.7,0.7C90.1,3.7,91.2,6.1,94.4,7.1z"/>
					<path class="st0" d="M79,96.2c4.3,1.2,5,1,7.5-1.1C83,93.7,81.5,94,79,96.2z"/>
					<path class="st0" d="M80.2,98.2c-2.7-1.6-5.3-1.9-7.9,0C76.6,99.9,77,99.9,80.2,98.2z"/>
					<path class="st0" d="M99.4,79.7c2.5-2,2.5-4.5,1.9-7.4C98.8,74.4,98.3,76.5,99.4,79.7z"/>
					<path class="st0" d="M105.2,15.6c-1.1,2.9-0.9,5.4,1.5,7.5C107.6,20.4,107.6,17.9,105.2,15.6z"/>
					<path class="st0" d="M105.6,23.8c-1.5-3.4-1.8-3.7-5.9-4.9C100.4,21.9,101.8,23.1,105.6,23.8z"/>
					<path class="st0" d="M102.6,81.3c-3.9,0.3-4.8,0.8-6.7,4C98.8,85.1,101.4,84.5,102.6,81.3z"/>
					<path class="st0" d="M89.9,88.7c2.9-1.5,3.7-4,3.7-6.9C90.7,83.4,90.1,84.6,89.9,88.7z"/>
					<path class="st0" d="M95.1,84.4c2.9-1.8,2.8-4.5,2.8-7.3C95.2,78.9,94.7,80.4,95.1,84.4z"/>
					<path class="st0" d="M113.4,34.8c-2.3,3.7-2.3,3.7-1.3,7.6C114.3,40.4,114.7,38.3,113.4,34.8z"/>
					<path class="st0" d="M85,93.2c2.9,0.8,5.5,0.7,7.5-1.9C89.6,90.5,87,90.6,85,93.2z"/>
					<path class="st0" d="M93.7,8c-2.1-2.5-4.7-2.8-7.5-1.9C88.2,8.6,90.8,8.9,93.7,8z"/>
					<path class="st0" d="M108.3,29.9c-0.5-3.3-2.8-4.7-5.6-5.5C103.2,27.6,105.4,29,108.3,29.9z"/>
					<path class="st0" d="M112.5,63c-2.9,1.1-4.8,2.8-5.1,6C110.2,68,112.2,66.3,112.5,63z"/>
					<path class="st0" d="M84.3,92.1c3.1-1,4.2-3.3,4.5-6.1C86,86.8,85.1,88,84.3,92.1z"/>
					<path class="st0" d="M100.5,80.3c2.7-0.5,5.2-1.3,6-4.4C103.3,75.9,101.7,77,100.5,80.3z"/>
					<path class="st0" d="M111,42.8c0.3-3.3-1.4-5.2-4-6.7C106.7,39.3,108.4,41.3,111,42.8z"/>
					<path class="st0" d="M108.6,21.6c-1.3,2.8-1.3,5.3,0.8,7.7C110.5,26.7,110.9,24.1,108.6,21.6z"/>
					<path class="st0" d="M108.1,48.6c-0.8,2.8-0.1,5.2,2.2,7.1C111.4,52.6,110.9,50.8,108.1,48.6z"/>
					<path class="st0" d="M110,36.3c-0.7-3.9-1.1-4.5-4.6-6.2C105.6,33.5,106.2,34.2,110,36.3z"/>
					<path class="st0" d="M72,97.1c3.1-0.4,4.9-2.1,5.9-4.9C74.9,92.2,73.5,93.4,72,97.1z"/>
					<path class="st0" d="M103.3,74.3c2.2-2.4,1.8-4.9,0.9-7.5C102,68.9,101.8,70.7,103.3,74.3z"/>
					<path class="st0" d="M78.3,95.1c3.2-0.7,4.6-2.8,5.2-5.8C80.2,89.9,79,92.2,78.3,95.1z"/>
					<path class="st0" d="M95.5,5c0,3,0.7,5.4,3.6,6.8C99.2,8.9,98.4,6.5,95.5,5z"/>
					<path class="st0" d="M102.2,18c-1.1-3.2-3.7-3.6-6.6-4C96.9,17,99.1,18.1,102.2,18z"/>
					<path class="st0" d="M114,56.1c-2.5,1.5-4.3,3.3-4,6.5C112.6,61.2,114.3,59.3,114,56.1z"/>
					<path class="st0" d="M108.1,42.3c-0.9,3.3,0.7,5.3,2.9,7.2C111.4,45.9,111.1,45.1,108.1,42.3z"/>
				</g>
			</g>
		</g>
	</g>
	<g>
		<circle class="st1" cx="57.5" cy="46.4" r="42.2"/>
		<g>
			
				<image style="overflow:visible;opacity:0.32;" width="461" height="462" xlink:href="16C28308.png"  transform="matrix(0.24 0 0 0.24 2.28 -4.9357)">
			</image>
			<g>
				<linearGradient id="SVGID_1_" gradientUnits="userSpaceOnUse" x1="57.5409" y1="0.24" x2="57.5409" y2="93.1427">
					<stop  offset="0" style="stop-color:#00A965"/>
					<stop  offset="1" style="stop-color:#2B2B5D"/>
				</linearGradient>
				<path class="st2" d="M57.5,0.2c-25.5,0-46.1,20.6-46.1,46.1c0,25.5,20.6,46.1,46.1,46.1s46.1-20.6,46.1-46.1
					C103.7,20.9,83,0.2,57.5,0.2z M57.5,87.3c-22.6,0-41-18.3-41-41c0-22.6,18.3-41,41-41s41,18.3,41,41
					C98.5,69,80.2,87.3,57.5,87.3z"/>
			</g>
		</g>
		<g>
			<g>
				<circle class="st0" cx="57.6" cy="46.4" r="20.1"/>
				<path class="st0" d="M19.1,53.4c0.3-1.7,0.5-2.4,0.6-4.5c0-1.8-0.2-2.8-0.6-4.5c0.5,0,0.8,0,1.1,0c4.6,0,9.2,0,13.8,0
					c1,0,1.4,0.3,1.4,1.4c0.2,8.8,4,15.6,11.8,19.8c13.4,7.3,30.3-1.7,31.9-16.8c0.1-1.1,0.1-2.3,0.2-3.4c0-0.3,0.3-0.8,0.8-0.9
					c5.1,0,10.1,0,15.2,0c0.1,0,0.2,0,0.6,0c-0.8,2.8-1.1,5.8,0.1,8.8c-0.7,0-1.1,0.1-1.5,0.1c-2.2,0-4.4,0-6.6,0
					c-0.9,0-1.3,0.3-1.6,1.2c-3.1,9.9-9.6,16.7-19.4,20.2c-14.2,4.9-30.3-2-36.6-15.6c-0.7-1.5-1.3-3.1-1.8-4.8
					c-0.2-0.7-0.6-1-1.3-0.9C24.6,53.5,21.9,53.4,19.1,53.4z"/>
				<g>
					<path class="st0" d="M26.6,43c1.7-15.6,14.9-27.8,31-27.8s29.3,12.2,31,27.8h2.3c-1.7-16.9-15.9-30.1-33.3-30.1
						C40.2,12.9,26,26.1,24.3,43H26.6z"/>
					<path class="st0" d="M87.5,54.8c-3.7,13.1-15.7,22.7-30,22.7s-26.3-9.6-30-22.7h-2.4c3.7,14.4,16.8,25,32.3,25
						c15.5,0,28.6-10.6,32.3-25H87.5z"/>
				</g>
			</g>
		</g>
	</g>
</g>
</svg>
