<?xml version="1.0" encoding="utf-8"?>
<!-- Generator: Adobe Illustrator 21.1.0, SVG Export Plug-In . SVG Version: 6.00 Build 0)  -->
<svg version="1.1" id="Слой_1" xmlns="http://www.w3.org/2000/svg" xmlns:xlink="http://www.w3.org/1999/xlink" x="0px" y="0px"
	 viewBox="0 0 22.5 85" style="enable-background:new 0 0 22.5 85;" xml:space="preserve">
<style type="text/css">
	.st0{fill:url(#SVGID_1_);}
	.st1{fill:url(#SVGID_2_);}
	.st2{fill:url(#SVGID_3_);}
	.st3{fill:url(#SVGID_4_);}
	.st4{fill:url(#SVGID_5_);}
	.st5{fill:url(#SVGID_6_);}
	.st6{fill:url(#SVGID_7_);}
	.st7{fill:url(#SVGID_8_);}
	.st8{fill:url(#SVGID_9_);}
	.st9{fill:url(#SVGID_10_);}
	.st10{fill:url(#SVGID_11_);}
	.st11{fill:url(#SVGID_12_);}
</style>
<g>
	<g>
		<linearGradient id="SVGID_1_" gradientUnits="userSpaceOnUse" x1="11.5331" y1="-0.5549" x2="8.0796" y2="17.0236">
			<stop  offset="0" style="stop-color:#FFBD22"/>
			<stop  offset="1" style="stop-color:#F38800"/>
		</linearGradient>
		<path class="st0" d="M21.5,0.7l-5.2,0c-1.1,0-2,0.5-2.6,1.4l-1.9,3.1c-0.2,0.4-0.8,0.4-1,0L8.8,2.1C8.3,1.2,7.3,0.6,6.2,0.6L1,0.6
			c-0.3,0-0.5,0.3-0.3,0.6l10.1,16.2c0.2,0.4,0.8,0.4,1,0L21.8,1.2C22,1,21.8,0.7,21.5,0.7z"/>
		<linearGradient id="SVGID_2_" gradientUnits="userSpaceOnUse" x1="7.9468" y1="17.1127" x2="5.729" y2="1.9827">
			<stop  offset="0" style="stop-color:#FFA722"/>
			<stop  offset="1" style="stop-color:#F3C900"/>
		</linearGradient>
		<path class="st1" d="M11.2,5.4c-0.2,0-0.4-0.1-0.5-0.3L8.8,2.1C8.3,1.2,7.3,0.6,6.2,0.6L1,0.6c-0.3,0-0.5,0.3-0.3,0.6l10.1,16.2
			c0.1,0.2,0.3,0.3,0.5,0.3V5.4z"/>
		<g>
			<linearGradient id="SVGID_3_" gradientUnits="userSpaceOnUse" x1="0" y1="9.121" x2="22.4541" y2="9.121">
				<stop  offset="0" style="stop-color:#FFD925"/>
				<stop  offset="0.4459" style="stop-color:#FAB01D"/>
				<stop  offset="1" style="stop-color:#F39A00"/>
			</linearGradient>
			<path class="st2" d="M11.2,18.2c-0.4,0-0.8-0.2-1-0.5L0.1,1.5C0,1.2,0,0.8,0.1,0.5C0.3,0.2,0.6,0,1,0l5.3,0
				c1.3,0,2.4,0.6,3.1,1.7l1.9,3.1l1.9-3.1C13.8,0.7,15,0,16.3,0c0,0,0,0,0,0l5.2,0c0.3,0,0.7,0.2,0.8,0.5c0.2,0.3,0.2,0.7,0,1
				L12.2,17.7C12,18,11.7,18.2,11.2,18.2L11.2,18.2z M1.3,1.2l9.9,15.9l9.9-15.8l-4.8,0c0,0,0,0,0,0c-0.9,0-1.6,0.4-2.1,1.2
				l-1.9,3.1C12,5.8,11.7,6,11.2,6h0c-0.4,0-0.8-0.2-1-0.5L8.3,2.4C7.9,1.6,7.1,1.2,6.2,1.2L1.3,1.2z"/>
		</g>
	</g>
	<g>
		
			<linearGradient id="SVGID_4_" gradientUnits="userSpaceOnUse" x1="-1063.303" y1="-2.9488" x2="-1066.7565" y2="14.6298" gradientTransform="matrix(-1 0 0 -1 -1052.38 82.6187)">
			<stop  offset="0" style="stop-color:#FFBD22"/>
			<stop  offset="1" style="stop-color:#F38800"/>
		</linearGradient>
		<path class="st3" d="M1,84.4l5.2,0c1.1,0,2-0.5,2.6-1.4l1.9-3.1c0.2-0.4,0.8-0.4,1,0l1.9,3.1c0.6,0.9,1.5,1.4,2.6,1.4l5.3,0
			c0.3,0,0.5-0.3,0.3-0.6L11.7,67.6c-0.2-0.4-0.8-0.4-1,0L0.6,83.8C0.5,84,0.7,84.4,1,84.4z"/>
		
			<linearGradient id="SVGID_5_" gradientUnits="userSpaceOnUse" x1="-1066.8893" y1="14.7188" x2="-1069.1071" y2="-0.4112" gradientTransform="matrix(-1 0 0 -1 -1052.38 82.6187)">
			<stop  offset="0" style="stop-color:#FFA722"/>
			<stop  offset="1" style="stop-color:#F3C900"/>
		</linearGradient>
		<path class="st4" d="M11.2,79.6c0.2,0,0.4,0.1,0.5,0.3l1.9,3.1c0.6,0.9,1.5,1.4,2.6,1.4l5.2,0c0.3,0,0.5-0.3,0.3-0.6L11.7,67.6
			c-0.1-0.2-0.3-0.3-0.5-0.3V79.6z"/>
		<g>
			
				<linearGradient id="SVGID_6_" gradientUnits="userSpaceOnUse" x1="-1074.8361" y1="6.7272" x2="-1052.3878" y2="6.7272" gradientTransform="matrix(-1 0 0 -1 -1052.38 82.6187)">
				<stop  offset="0" style="stop-color:#FFD925"/>
				<stop  offset="0.4459" style="stop-color:#FAB01D"/>
				<stop  offset="1" style="stop-color:#F39A00"/>
			</linearGradient>
			<path class="st5" d="M21.5,85C21.5,85,21.5,85,21.5,85l-5.3,0c-1.3,0-2.4-0.6-3.1-1.7l-1.9-3.1l-1.9,3.1C8.6,84.3,7.5,85,6.2,85
				c0,0,0,0,0,0L1,85c-0.3,0-0.7-0.2-0.8-0.5s-0.2-0.7,0-1l10.1-16.2c0.2-0.3,0.6-0.5,1-0.5c0.4,0,0.8,0.2,1,0.5l10.1,16.2
				c0.2,0.3,0.2,0.7,0,1C22.2,84.8,21.8,85,21.5,85z M11.2,79c0.4,0,0.8,0.2,1,0.5l1.9,3.1c0.5,0.7,1.2,1.2,2.1,1.2l4.9,0l-9.9-15.9
				L1.3,83.8l4.8,0c0,0,0,0,0,0c0.9,0,1.6-0.4,2.1-1.2l1.9-3.1C10.4,79.2,10.8,79,11.2,79z"/>
		</g>
	</g>
	<linearGradient id="SVGID_7_" gradientUnits="userSpaceOnUse" x1="11.7285" y1="42.5062" x2="10.7276" y2="42.5062">
		<stop  offset="0" style="stop-color:#FFD925"/>
		<stop  offset="0.4459" style="stop-color:#FAB01D"/>
		<stop  offset="1" style="stop-color:#F39A00"/>
	</linearGradient>
	<rect x="10.7" y="22.5" class="st6" width="1" height="40.1"/>
</g>
</svg>
