<?xml version="1.0" encoding="utf-8"?>
<!-- Generator: Adobe Illustrator 21.1.0, SVG Export Plug-In . SVG Version: 6.00 Build 0)  -->
<svg version="1.1" id="Слой_1" xmlns="http://www.w3.org/2000/svg" xmlns:xlink="http://www.w3.org/1999/xlink" x="0px" y="0px"
	 viewBox="0 0 1039 214.5" style="enable-background:new 0 0 1039 214.5;" xml:space="preserve">
<style type="text/css">
	.st0{fill:#00A965;}
	.st1{fill:#FFFFFF;}
	.st2{fill:none;}
	.st3{fill:url(#SVGID_1_);}
	.st4{fill:url(#SVGID_2_);}
	.st5{fill:url(#SVGID_3_);}
	.st6{fill:url(#SVGID_4_);}
	.st7{fill:url(#SVGID_5_);}
	.st8{fill:url(#SVGID_6_);}
	.st9{fill:url(#SVGID_7_);}
	.st10{fill:url(#SVGID_8_);}
	.st11{fill:url(#SVGID_9_);}
	.st12{fill:url(#SVGID_10_);}
	.st13{fill:url(#SVGID_11_);}
	.st14{fill:url(#SVGID_12_);}
	.st15{fill:url(#SVGID_13_);}
	.st16{fill:url(#SVGID_14_);}
	.st17{fill:url(#SVGID_15_);}
	.st18{fill:url(#SVGID_16_);}
	.st19{fill:url(#SVGID_17_);}
	.st20{fill:url(#SVGID_18_);}
	.st21{fill:url(#SVGID_19_);}
	.st22{fill:url(#SVGID_20_);}
</style>
<g>
	<g>
		<path class="st0" d="M410.4,137.3c-0.9,17.7-5.9,31.3-14.9,40.7c-9,9.4-21.8,14.1-38.3,14.1c-16.6,0-29.7-6.3-39.5-18.9
			c-9.8-12.6-14.6-29.7-14.6-51.2v-30c0-21.5,5-38.5,15-50.9c10-12.5,23.7-18.7,41-18.7c16,0,28.3,4.8,37,14.3s13.5,23.2,14.2,41
			h-21c-0.9-13.5-3.7-23.1-8.5-28.8c-4.8-5.7-12-8.6-21.8-8.6c-11.3,0-19.9,4.4-26,13.2c-6.1,8.8-9.1,21.7-9.1,38.7v30.3
			c0,16.7,2.8,29.5,8.5,38.5c5.6,8.9,13.9,13.4,24.7,13.4c10.8,0,18.6-2.7,23.4-8.1c4.8-5.4,7.7-15,8.8-28.9H410.4z"/>
		<path class="st0" d="M510.7,148.1c0-8.2-2.2-14.6-6.7-18.9c-4.5-4.4-12.5-8.7-24.2-12.8c-11.6-4.2-20.6-8.5-26.7-13.1
			c-6.2-4.6-10.8-9.8-13.8-15.7c-3.1-5.9-4.6-12.6-4.6-20.1c0-13.1,4.4-23.9,13.1-32.3c8.7-8.5,20.2-12.7,34.3-12.7
			c9.7,0,18.3,2.2,25.9,6.5c7.6,4.3,13.4,10.3,17.5,18c4.1,7.7,6.1,16.2,6.1,25.4h-20.9c0-10.2-2.5-18.1-7.4-23.7
			c-4.9-5.6-12-8.4-21.2-8.4c-8.4,0-14.9,2.4-19.5,7c-4.6,4.7-6.9,11.3-6.9,19.8c0,7,2.5,12.8,7.5,17.5c5,4.7,12.7,8.9,23.1,12.6
			c16.3,5.4,27.9,12,34.9,19.9c7,7.9,10.5,18.2,10.5,30.9c0,13.4-4.4,24.1-13,32.2c-8.7,8.1-20.5,12.1-35.5,12.1
			c-9.6,0-18.5-2.1-26.6-6.3c-8.1-4.2-14.5-10.1-19.2-17.7s-7-16.3-7-26.2h20.9c0,10.2,2.9,18.2,8.6,23.8c5.7,5.7,13.5,8.5,23.3,8.5
			c9.2,0,16-2.3,20.6-7C508.4,162.6,510.7,156.2,510.7,148.1z"/>
		<path class="st1" d="M558.9,189.9V24.7h39.4c19.3,0,34.3,6,44.9,18.1c10.7,12.1,16,29,16,50.9v27.7c0,21.9-5.4,38.7-16.2,50.7
			c-10.8,11.9-26.5,17.9-47.1,17.9H558.9z M579.7,42.5v129.6h16.7c14.6,0,25.3-4.2,32-12.5c6.7-8.4,10.2-20.8,10.3-37.2V93
			c0-17.4-3.3-30.2-10-38.3c-6.7-8.1-16.8-12.2-30.4-12.2H579.7z"/>
		<path class="st1" d="M790,24.7v117.4c-0.2,15.7-4.7,27.9-13.6,36.8c-8.9,8.8-21.4,13.3-37.3,13.3c-16.3,0-28.8-4.3-37.4-13
			c-8.6-8.7-13-21-13.2-37V24.7h20.6v116.5c0,11.1,2.4,19.4,7.1,24.9c4.7,5.5,12.3,8.2,22.9,8.2c10.6,0,18.2-2.7,23-8.2
			c4.7-5.5,7.1-13.8,7.1-24.9V24.7H790z"/>
		<path class="st1" d="M894.2,148.1c0-8.2-2.2-14.6-6.7-18.9c-4.5-4.4-12.5-8.7-24.2-12.8c-11.6-4.2-20.6-8.5-26.7-13.1
			c-6.2-4.6-10.8-9.8-13.8-15.7c-3.1-5.9-4.6-12.6-4.6-20.1c0-13.1,4.4-23.9,13.1-32.3c8.7-8.5,20.2-12.7,34.3-12.7
			c9.7,0,18.3,2.2,25.9,6.5c7.6,4.3,13.4,10.3,17.5,18c4.1,7.7,6.1,16.2,6.1,25.4h-20.9c0-10.2-2.5-18.1-7.4-23.7
			c-4.9-5.6-12-8.4-21.2-8.4c-8.4,0-14.9,2.4-19.5,7c-4.6,4.7-6.9,11.3-6.9,19.8c0,7,2.5,12.8,7.5,17.5c5,4.7,12.7,8.9,23.1,12.6
			c16.3,5.4,27.9,12,34.9,19.9c7,7.9,10.5,18.2,10.5,30.9c0,13.4-4.4,24.1-13,32.2c-8.7,8.1-20.5,12.1-35.5,12.1
			c-9.6,0-18.5-2.1-26.6-6.3c-8.1-4.2-14.5-10.1-19.2-17.7s-7-16.3-7-26.2h20.9c0,10.2,2.9,18.2,8.6,23.8c5.7,5.7,13.5,8.5,23.3,8.5
			c9.1,0,16-2.3,20.6-7C891.9,162.6,894.2,156.2,894.2,148.1z"/>
		<path class="st1" d="M1039,42.5h-43.5v147.4h-20.8V42.5h-43.3V24.7H1039V42.5z"/>
	</g>
	<g>
		<path class="st2" d="M118.4,117.8c0-9.3-7.6-16.9-16.9-16.9c-9.3,0-16.9,7.6-16.9,16.9s7.6,16.9,16.9,16.9
			C110.9,134.7,118.4,127.1,118.4,117.8z M88.4,117.6c0-7.3,5.9-13.2,13.2-13.2c7.3,0,13.2,5.9,13.2,13.2s-5.9,13.2-13.2,13.2
			C94.3,130.8,88.4,124.9,88.4,117.6z"/>
		<linearGradient id="SVGID_1_" gradientUnits="userSpaceOnUse" x1="92.6686" y1="201.9974" x2="89.4554" y2="155.1767">
			<stop  offset="0" style="stop-color:#00935C"/>
			<stop  offset="1" style="stop-color:#0DD960"/>
		</linearGradient>
		<path class="st3" d="M98.1,158.9c-13,18.4-27,36.4-38.8,55.6l33.3-5.1l29.2-80.9l0,0c-0.8,1.6-1.7,3.2-2.8,4.7
			C112.5,142.4,104.6,149.7,98.1,158.9z"/>
		<linearGradient id="SVGID_2_" gradientUnits="userSpaceOnUse" x1="43.2343" y1="144.1667" x2="18.0406" y2="159.7445">
			<stop  offset="0" style="stop-color:#00935C"/>
			<stop  offset="1" style="stop-color:#0DD960"/>
		</linearGradient>
		<path class="st4" d="M26.7,136.9c0.1,13.3,10.7,24.8,22,27.6c15.8,4,29.5-2.7,36.3-14.3c2.9-4.9,5.6-9.6,0-15.5
			c-9.8-10.4-9.2-23.6,0.3-33.2c1.4-1.5,3.2-2.8,5-3.7l-0.1,0.1c0,0-10.6,4.9-14.3,15.7c-2.6,7.7-1.5,13.5,2.5,20.8
			c3,5.5-1,13.5-9.3,17.4c-7.6,3.5-26.6,4.2-31.4-13.9c-5.4-20.1,19.9-35.5,19.9-35.5c-4.4,1.5-7.4,2.4-10.2,3.6
			C34.5,111.2,26.6,122.8,26.7,136.9z"/>
		<linearGradient id="SVGID_3_" gradientUnits="userSpaceOnUse" x1="88.4147" y1="117.5728" x2="114.856" y2="117.5728">
			<stop  offset="0" style="stop-color:#00935C"/>
			<stop  offset="1" style="stop-color:#0DD960"/>
		</linearGradient>
		<circle class="st5" cx="101.6" cy="117.6" r="13.2"/>
		<linearGradient id="SVGID_4_" gradientUnits="userSpaceOnUse" x1="-0.3783" y1="61.3583" x2="220.7031" y2="143.7074">
			<stop  offset="0" style="stop-color:#00A965"/>
			<stop  offset="1" style="stop-color:#0DD960"/>
		</linearGradient>
		<path class="st6" d="M51.8,82.4c2.9-0.4,5.8-0.3,9,0.2C58.4,82.1,55.5,81.8,51.8,82.4z"/>
		<linearGradient id="SVGID_5_" gradientUnits="userSpaceOnUse" x1="27.2213" y1="-12.7381" x2="248.3028" y2="69.611">
			<stop  offset="0" style="stop-color:#00A965"/>
			<stop  offset="1" style="stop-color:#0DD960"/>
		</linearGradient>
		<path class="st7" d="M128.3,28.7c4.3-1.5,8.7-2.4,12.9-2.9c-4.2,0.5-8.6,1.3-12.8,2.8C128.4,28.7,128.3,28.7,128.3,28.7z"/>
		<linearGradient id="SVGID_6_" gradientUnits="userSpaceOnUse" x1="-4.1231" y1="71.4116" x2="216.9584" y2="153.7608">
			<stop  offset="0" style="stop-color:#00A965"/>
			<stop  offset="1" style="stop-color:#0DD960"/>
		</linearGradient>
		<path class="st8" d="M43.9,84.8c-5.5,2.5-8.9,5.7-8.9,5.7C37.9,88.1,40.8,86.2,43.9,84.8z"/>
		<linearGradient id="SVGID_7_" gradientUnits="userSpaceOnUse" x1="19.1054" y1="9.0506" x2="240.1868" y2="91.3998">
			<stop  offset="0" style="stop-color:#00A965"/>
			<stop  offset="1" style="stop-color:#0DD960"/>
		</linearGradient>
		<path class="st9" d="M201.8,77.3c0,0-0.4-0.3-1.1-0.7C201.2,76.9,201.6,77.1,201.8,77.3z"/>
		<linearGradient id="SVGID_8_" gradientUnits="userSpaceOnUse" x1="17.6774" y1="12.8843" x2="238.7588" y2="95.2335">
			<stop  offset="0" style="stop-color:#00A965"/>
			<stop  offset="1" style="stop-color:#0DD960"/>
		</linearGradient>
		<path class="st10" d="M157.8,66.1c2.4,0.1,4.5,0.2,6.4,0.3C160.2,66.1,157.8,66.1,157.8,66.1z"/>
		<linearGradient id="SVGID_9_" gradientUnits="userSpaceOnUse" x1="-11.2697" y1="90.6058" x2="209.8117" y2="172.9549">
			<stop  offset="0" style="stop-color:#00A965"/>
			<stop  offset="1" style="stop-color:#0DD960"/>
		</linearGradient>
		<path class="st11" d="M168.2,144.7c-1.4,7.8-2,16.1-1.3,25C166.4,162.2,166.7,153.8,168.2,144.7z"/>
		<linearGradient id="SVGID_10_" gradientUnits="userSpaceOnUse" x1="-0.9942" y1="63.0117" x2="220.0872" y2="145.3608">
			<stop  offset="0" style="stop-color:#00A965"/>
			<stop  offset="1" style="stop-color:#0DD960"/>
		</linearGradient>
		<path class="st12" d="M51,82.5c0.2,0,0.4-0.1,0.7-0.1c0,0-0.1,0-0.1,0C51.3,82.5,51.1,82.5,51,82.5z"/>
		<linearGradient id="SVGID_11_" gradientUnits="userSpaceOnUse" x1="6.4344" y1="76.6878" x2="219.1011" y2="149.0212">
			<stop  offset="0" style="stop-color:#00A965"/>
			<stop  offset="1" style="stop-color:#21DD55"/>
		</linearGradient>
		<path class="st13" d="M114.4,0C51.3,0,0.1,51.2,0.1,114.3c0,43.2,23.9,80.7,59.2,100.2c11.8-19.2,25.8-37.2,38.8-55.6
			c6.5-9.2,14.3-16.5,20.9-25.7c1.1-1.5,2-3.1,2.8-4.7c4.8-9.9,3.7-21.3-4.3-28.3c-7.4-6.4-18.7-7.3-27.3-2.5
			c-1.7,1-3.3,2.2-4.8,3.6c-9.6,9.7-10.1,22.8-0.3,33.2c5.5,5.9,2.8,10.6,0,15.5c-6.8,11.6-20.5,18.3-36.3,14.3
			c-11.3-2.9-22-14.3-22-27.6c-0.1-14.1,7.8-25.6,20.7-30.9c2.9-1.2,5.8-2.1,10.2-3.6C50.2,98,41.8,94.4,35,90.5
			c0,0,3.7-9.1,10.5-12.4c12-5.8,21.4-2.9,24.9-3.8c8.5-2.2,13.5-21.8,18.9-32.3c9.6-18.5,24.6-24.7,41.2-24.8
			c23.4-0.1,34.1,9.3,34.1,9.3s-13.3,5.7-21,11.3c-10.4,7.5-13.2,14-13.2,14s22.6-12.9,49-5.4c18.7,5.3,24.6,16.8,24.6,16.8
			s-7.4-3.1-20.3-2.4c-14.7,0.7-22.3,3.4-25.9,5.3h0c0,0,16.8-2.4,32.8,0.6c17.8,3.3,23.9,12.4,23.9,12.4S197.2,95,185,132.3
			c-12.9,39.5-7.1,77.1-7.1,77.1c30.6-20.5,50.8-55.4,50.8-95C228.7,51.2,177.5,0,114.4,0z M84.7,117.8c0-9.3,7.6-16.9,16.9-16.9
			c9.3,0,16.9,7.6,16.9,16.9s-7.6,16.9-16.9,16.9C92.2,134.7,84.7,127.1,84.7,117.8z"/>
		<linearGradient id="SVGID_12_" gradientUnits="userSpaceOnUse" x1="193.7522" y1="131.1395" x2="172.9794" y2="83.1643">
			<stop  offset="0" style="stop-color:#00935C"/>
			<stop  offset="1" style="stop-color:#0DD960"/>
		</linearGradient>
		<path class="st14" d="M201.8,77.3c0,0-18.1,20.5-26.8,42.8c-3.4,8.7-5.6,17-6.8,24.7c2.5-14,7.7-26.3,13-37.3
			C186.4,96.7,199.6,81,201.8,77.3z"/>
		<linearGradient id="SVGID_13_" gradientUnits="userSpaceOnUse" x1="205.9894" y1="125.8409" x2="185.2166" y2="77.8658">
			<stop  offset="0" style="stop-color:#00935C"/>
			<stop  offset="1" style="stop-color:#0DD960"/>
		</linearGradient>
		<path class="st15" d="M164.2,66.4c4.8,0.4,11.8,1.2,19.4,3.2c9.1,2.4,14.9,5.6,17.2,7c-2.5-1.6-8-5.2-18.6-7.8
			C176.9,67.5,172.1,66.8,164.2,66.4z"/>
		<linearGradient id="SVGID_14_" gradientUnits="userSpaceOnUse" x1="154.2995" y1="148.2221" x2="133.5267" y2="100.247">
			<stop  offset="0" style="stop-color:#00935C"/>
			<stop  offset="1" style="stop-color:#0DD960"/>
		</linearGradient>
		<path class="st16" d="M177.9,209.4c-6.8-14.4-10.1-27.5-11-39.7C168.5,194.2,177.9,209.4,177.9,209.4z"/>
		<linearGradient id="SVGID_15_" gradientUnits="userSpaceOnUse" x1="158.9713" y1="68.9425" x2="156.5296" y2="63.3034">
			<stop  offset="0" style="stop-color:#00935C"/>
			<stop  offset="1" style="stop-color:#0DD960"/>
		</linearGradient>
		<polygon class="st17" points="157.7,66.1 157.8,66.1 157.7,66.1 		"/>
		<linearGradient id="SVGID_16_" gradientUnits="userSpaceOnUse" x1="-2.8292" y1="67.938" x2="218.2523" y2="150.2871">
			<stop  offset="0" style="stop-color:#00A965"/>
			<stop  offset="1" style="stop-color:#0DD960"/>
		</linearGradient>
		<path class="st18" d="M185,132.3c12.2-37.3,29.4-53.2,29.4-53.2s-6.1-9-23.9-12.4c-15.9-3-32.7-0.6-32.8-0.6c0,0,0,0,0,0
			c0,0,2.5,0,6.4,0.3c8,0.4,12.8,1.1,18,2.4c10.6,2.6,16.1,6.2,18.6,7.8c0.7,0.4,1.1,0.7,1.1,0.7c-2.2,3.8-15.4,19.4-20.6,30.2
			c-5.3,11-10.4,23.3-13,37.3c-1.5,9.1-1.8,17.5-1.3,25c0.9,12.1,4.2,25.3,11,39.7C177.9,209.4,172.1,171.8,185,132.3z"/>
		<linearGradient id="SVGID_17_" gradientUnits="userSpaceOnUse" x1="190.9466" y1="132.3543" x2="170.1738" y2="84.3792">
			<stop  offset="0" style="stop-color:#00935C"/>
			<stop  offset="1" style="stop-color:#0DD960"/>
		</linearGradient>
		<path class="st19" d="M185,132.3c12.2-37.3,29.4-53.2,29.4-53.2s-6.1-9-23.9-12.4c-15.9-3-32.7-0.6-32.8-0.6c0,0,0,0,0,0
			c0,0,2.5,0,6.4,0.3c8,0.4,12.8,1.1,18,2.4c10.6,2.6,16.1,6.2,18.6,7.8c0.7,0.4,1.1,0.7,1.1,0.7c-2.2,3.8-15.4,19.4-20.6,30.2
			c-5.3,11-10.4,23.3-13,37.3c-1.5,9.1-1.8,17.5-1.3,25c0.9,12.1,4.2,25.3,11,39.7C177.9,209.4,172.1,171.8,185,132.3z"/>
		<linearGradient id="SVGID_18_" gradientUnits="userSpaceOnUse" x1="47.7287" y1="82.0268" x2="42.909" y2="58.6165">
			<stop  offset="0" style="stop-color:#00935C"/>
			<stop  offset="1" style="stop-color:#0DD960"/>
		</linearGradient>
		<path class="st20" d="M51,82.5c-2,0.4-4,0.9-5.9,1.7C46.9,83.5,48.8,82.9,51,82.5z"/>
		<linearGradient id="SVGID_19_" gradientUnits="userSpaceOnUse" x1="159.6483" y1="58.9846" x2="154.8285" y2="35.5742">
			<stop  offset="0" style="stop-color:#00935C"/>
			<stop  offset="1" style="stop-color:#0DD960"/>
		</linearGradient>
		<path class="st21" d="M141.2,25.9c12.3-1.4,23.4,0.7,23.4,0.7S154,24.4,141.2,25.9z"/>
		<linearGradient id="SVGID_20_" gradientUnits="userSpaceOnUse" x1="102.3534" y1="71.0398" x2="97.5081" y2="47.5056">
			<stop  offset="0" style="stop-color:#00935C"/>
			<stop  offset="1" style="stop-color:#0DD960"/>
		</linearGradient>
		<path class="st22" d="M130.5,17.2c-16.5,0-31.5,6.2-41.2,24.8c-5.4,10.5-10.4,30.1-18.9,32.3c-3.6,0.9-12.9-2-24.9,3.8
			C38.7,81.4,35,90.5,35,90.5s3.4-3.2,8.9-5.7c0.2-0.1,0.4-0.2,0.6-0.3c0.2-0.1,0.4-0.2,0.6-0.3c1.9-0.8,3.9-1.4,5.9-1.7
			c0.2,0,0.3-0.1,0.5-0.1c0,0,0.1,0,0.1,0c0.1,0,0.1,0,0.2,0c3.6-0.6,6.5-0.3,9,0.2c4,0.8,7.1,2.3,10.9,2.4
			c5.8,0.1,10.1-6.8,16.1-16.5c12.4-20,23.5-33.6,40.4-39.7c0,0,0.1,0,0.1,0c4.2-1.5,8.6-2.4,12.8-2.8c12.8-1.5,23.4,0.7,23.4,0.7
			S153.8,17.1,130.5,17.2z"/>
	</g>
</g>
</svg>
