<svg style="display: none" xmlns="http://www.w3.org/2000/svg" xmlns:xlink="http://www.w3.org/1999/xlink">

    <symbol id="vk" viewBox="0 0 100 59.4">
        <path d="M58.5,15c0,3.6,0,7.2,0,10.8c0,0.6,0.1,1.3,0.3,1.9c0.4,1.1,1.2,1.4,2.2,1.1c0.6-0.2,1.2-0.6,1.8-1c1.6-1.2,3-2.7,4.2-4.3
        c2.7-3.4,4.9-7,7-10.7c1.7-3.1,3.3-6.3,4.7-9.5c0.6-1.5,1.6-2.5,3.2-2.9C82.4,0.1,83,0,83.5,0c3.6,0,7.3,0,10.9,0
        c0.6,0,1.3,0.1,1.9,0.3c1.1,0.3,1.7,1.1,1.6,2.3c0,1-0.3,2-0.7,3c-0.7,1.8-1.6,3.6-2.5,5.3c-2.7,4.8-5.7,9.4-8.7,14
        c-0.9,1.4-1.9,2.7-2.8,4.1c-0.3,0.5-0.6,1-0.9,1.5c-0.5,0.9-0.5,1.8,0.1,2.7c0.4,0.6,0.9,1.3,1.4,1.8c1,1.1,2.1,2.2,3.2,3.2
        c3.8,3.8,7.3,7.9,10.5,12.3c0.8,1.1,1.5,2.3,2,3.5c0.4,0.8,0.6,1.7,0.5,2.6c-0.1,1-0.5,1.8-1.4,2.2c-0.5,0.3-1.2,0.4-1.8,0.5
        c-0.4,0.1-0.8,0.1-1.2,0.1c-3.4,0-6.8,0-10.2,0c-1.9,0-3.5-0.6-4.8-1.9c-1.4-1.4-2.7-2.8-4-4.2c-2.6-2.9-5.3-5.7-8.4-8.2
        c-1.2-1-2.4-1.9-3.8-2.6c-1.2-0.6-2.5-1-3.9-0.9c-1.1,0.1-1.7,0.6-2,1.7c-0.1,0.5-0.1,1.1-0.1,1.6c0,3.2,0,6.5,0,9.7
        c0,0.5,0,1.1-0.1,1.6c-0.1,0.9-0.6,1.7-1.4,2.1c-0.6,0.3-1.3,0.5-2,0.7c-2.3,0.4-4.7,0.4-7,0.2c-7.3-0.7-13.8-3.7-19.6-8.1
        c-4.1-3.1-7.5-6.8-10.5-10.9C13,33.4,8.6,26.3,5.1,18.7c-1.8-3.9-3.4-8-4.5-12.2c-0.3-1-0.5-2-0.6-3.1C0,2.9,0.1,2.2,0.2,1.7
        c0.3-1,1.1-1.4,2.1-1.5C2.8,0.1,3.3,0,3.8,0C7.4,0,11,0,14.6,0c0.2,0,0.4,0,0.6,0c1.7,0.1,2.9,0.9,3.6,2.5c0.4,0.9,0.7,1.8,1,2.7
        c2.6,7.1,5.7,13.9,9.8,20.3c1.3,2,2.7,3.9,4.3,5.6c0.7,0.8,1.5,1.5,2.4,2c0.5,0.3,1.1,0.5,1.7,0.4c0.6-0.1,1-0.4,1.2-0.9
        c0.2-0.5,0.3-1.1,0.3-1.6c0.1-0.7,0.1-1.3,0.1-2c0-5.1,0-10.2,0-15.4c0-3.1-0.9-6-2.9-8.4c-0.3-0.3-0.6-0.7-0.8-1.1
        c-0.6-0.8-0.8-1.8-0.3-2.7C36.1,0.5,37,0.1,38,0c0.1,0,0.3,0,0.4,0C44,0,49.6,0,55.1,0c0.4,0,0.8,0.1,1.2,0.1
        c0.8,0.2,1.4,0.7,1.7,1.5c0.3,0.8,0.4,1.7,0.4,2.5C58.5,7.8,58.5,11.4,58.5,15z"/>
    </symbol>

    <symbol id="telegram" viewBox="0 0 100 83.3">
        <path d="M37.6,78.2c0.2-2.5,0.3-4.9,0.5-7.4c0.4-5,0.7-10,1.1-15c0-0.6,0.2-1,0.7-1.4c9.7-8.7,19.3-17.3,29-26
		c4.3-3.8,8.6-7.7,12.8-11.5c0.1-0.1,1.2-1,0.8-1.7c-0.4-0.7-1.1-0.5-1.7-0.3c-0.6,0.2-1.2,0.5-1.7,0.9
		C61.7,26.6,44.3,37.5,26.9,48.3c-0.3,0.2-0.8,0.3-1.2,0.1c-7.4-2.3-14.7-4.5-22-6.9c-0.8-0.3-1.6-0.6-2.3-1.1
		c-1.7-1.1-1.8-2.6-0.4-3.9c0.9-0.8,2-1.5,3.2-2c5.5-2.2,10.9-4.2,16.4-6.3c13.1-5,26.2-10.1,39.4-15.1C71,9,82.1,4.8,93.1,0.5
		c0.6-0.2,1.2-0.4,1.8-0.5c3-0.3,5.1,1.5,5.1,4.6c0,1.9-0.4,3.7-0.8,5.6c-3.2,15.2-6.4,30.3-9.7,45.5c-1.6,7.6-3.2,15.1-4.9,22.7
		c-0.2,1.1-0.7,2.1-1.3,3.1c-1,1.6-2.5,2.2-4.3,1.8c-1.1-0.3-2.2-0.7-3.1-1.4c-7.3-5.3-14.6-10.6-21.9-16c-0.6-0.4-0.9-0.4-1.3,0.1
		C49,69.5,45.3,73,41.6,76.5C40.5,77.6,39.3,78.2,37.6,78.2z"/>
    </symbol>

    <symbol id="youtube" viewBox="0 0 100 70.4">
        <path d="M50.3,70.4c-8.1,0-16.2,0-24.3,0c-1,0-2,0-3-0.1c-1.6-0.1-3.2-0.2-4.7-0.5c-2.3-0.3-4.6-0.9-6.9-1.7c-1.8-0.7-3.5-1.7-5-3
        c-1.5-1.3-2.7-2.9-3.6-4.7c-0.9-1.8-1.5-3.6-1.8-5.6c-0.4-2.1-0.6-4.2-0.8-6.3C0,46.9,0,45.3,0,43.6c0-7.2,0-14.5,0-21.7
        c0-2,0.1-4.1,0.3-6.1c0.2-1.7,0.4-3.4,1-5.1c0.6-1.9,1.5-3.6,2.9-5.1c1.3-1.3,2.8-2.3,4.4-3.1C10.3,1.8,12,1.4,13.8,1
        c1.3-0.3,2.7-0.5,4-0.6c1.3-0.1,2.6-0.2,3.9-0.3C23.5,0,25.4,0,27.3,0c15.1,0,30.3,0,45.4,0c1.1,0,2.2,0,3.2,0c1.3,0,2.7,0.1,4,0.2
        c1.1,0.1,2.3,0.2,3.4,0.3c2.4,0.3,4.7,0.8,7,1.6c1.6,0.6,3.1,1.4,4.5,2.6c1.4,1.2,2.5,2.8,3.2,4.5c0.7,1.5,1.1,3.2,1.3,4.8
        c0.4,2.5,0.6,5,0.6,7.5c0,7.7,0,15.5,0,23.2c0,2.2-0.1,4.4-0.3,6.5c-0.2,2.4-0.6,4.7-1.4,7c-0.7,2-1.6,3.9-3,5.6
        c-1.5,1.8-3.4,3.1-5.5,4.1c-1.6,0.7-3.3,1.2-5,1.5c-1.4,0.3-2.8,0.5-4.3,0.6c-1.3,0.1-2.5,0.2-3.8,0.2c-1.4,0-2.7,0.1-4.1,0.1
        C65.1,70.4,57.7,70.4,50.3,70.4C50.3,70.4,50.3,70.4,50.3,70.4z M38.5,34.7L38.5,34.7c0,2.9,0,5.9,0,8.8c0,0.7,0,1.4,0,2.1
        c0,0.5,0.1,0.9,0.3,1.3c0.7,1.7,2.7,2.5,4.5,1.6c2.1-1.1,4.2-2.2,6.3-3.3c4.4-2.3,8.8-4.6,13.1-6.9c0.5-0.3,1-0.5,1.5-0.8
        c1.1-0.6,1.7-1.6,1.7-2.8c0-1.3-0.6-2.2-1.7-2.8c-0.3-0.2-0.7-0.4-1.1-0.5c-3.9-2-7.7-4-11.6-6c-2-1-4-2.1-5.9-3.1
        c-0.8-0.4-1.7-0.9-2.5-1.3c-1.3-0.6-2.7-0.3-3.7,0.7c-0.7,0.7-0.9,1.5-0.9,2.4C38.5,27.6,38.5,31.1,38.5,34.7z"/>
    </symbol>

    <symbol id="sound-on" viewBox="0 0 100 100">
        <path d="M56.8,50c0,8.3,0,16.6,0,24.9c0,0.3,0,0.5,0,0.8c-0.1,1.4-1.1,2.1-2.3,1.5c-2.4-1.3-4.8-2.6-7.1-4
        c-5.8-3.7-11.5-7.4-17.3-11.1c-0.4-0.2-0.9-0.4-1.3-0.4c-2.9,0-5.9,0-8.8,0c-2.2,0-3.6-1.4-3.6-3.6c0-5.3,0-10.7,0-16
        c0-2.2,1.4-3.6,3.7-3.6c2.9,0,5.9,0,8.8,0c0.4,0,0.9-0.1,1.2-0.4c6.9-4.4,13.8-8.8,20.8-13.2c1.1-0.7,2.3-1.3,3.5-1.9
        c1.5-0.7,2.5,0,2.5,1.6C56.8,33,56.8,41.5,56.8,50z"/>
        <path d="M74.2,28.5c12.9,11.7,12.3,32,0,42.9c-1.1,1-2.7,0.8-3.6-0.3c0,0,0,0,0,0c-0.8-1-0.6-2.4,0.3-3.3
        c5.1-4.7,7.9-10.6,7.9-17.8c0-7.2-2.8-13.1-7.9-17.8c-0.9-0.8-1-2.3-0.3-3.3c0,0,0,0,0,0C71.4,27.8,73.1,27.6,74.2,28.5z"/>
        <path d="M63.4,35.3C63.4,35.3,63.4,35.3,63.4,35.3C64.3,34.1,66,34,67,35c8.1,7.7,8.7,21.5,0,30c-1.1,1-2.8,0.9-3.7-0.3l0,0
        c-0.7-1-0.6-2.4,0.2-3.2c3.1-3.1,4.8-6.9,4.8-11.5c0-4.6-1.7-8.3-4.8-11.5C62.8,37.7,62.6,36.3,63.4,35.3z"/>
        <path d="M50,0C22.4,0,0,22.4,0,50s22.4,50,50,50s50-22.4,50-50S77.6,0,50,0z M50,93.3C26.1,93.3,6.7,73.9,6.7,50
        C6.7,26.1,26.1,6.7,50,6.7S93.3,26.1,93.3,50C93.3,73.9,73.9,93.3,50,93.3z"/>
    </symbol>

    <symbol id="sound-off" viewBox="0 0 100 100">
        <path d="M56.5,50c0,8.4,0,16.8,0,25.1c0,1.8-1,2.5-2.6,1.7c-2.5-1.3-4.9-2.7-7.3-4.2c-5.6-3.5-11.1-7.1-16.7-10.7
        c-0.4-0.2-0.8-0.4-1.3-0.4c-2.9,0-5.7,0-8.6,0c-2.3,0-3.7-1.4-3.7-3.7c0-5.2,0-10.4,0-15.7c0-2.3,1.4-3.7,3.7-3.7
        c2.9,0,5.7,0,8.6,0c0.4,0,1-0.2,1.3-0.4c6.8-4.3,13.7-8.7,20.5-13c1.1-0.7,2.2-1.3,3.4-1.8c1.5-0.7,2.5,0,2.5,1.6
        C56.5,33.2,56.5,41.6,56.5,50z"/>
        <path d="M73.1,53.1c-0.6,0.6-1.1,1.2-1.6,1.7c-1.6,1.6-3.2,3.2-4.8,4.8c-0.5,0.5-1.2,0.9-2,0.8c-0.9-0.1-1.6-0.5-1.9-1.4
        c-0.3-0.9-0.2-1.7,0.5-2.4c2.1-2.1,4.1-4.1,6.2-6.2c0.1-0.1,0.3-0.2,0.6-0.5c-0.3-0.2-0.5-0.3-0.7-0.5c-2-2-4-4-6-6
        c-0.7-0.7-1-1.5-0.7-2.4c0.4-1.6,2.5-2.2,3.7-1c2,2,4.1,4.1,6.1,6.1c0.2,0.2,0.3,0.4,0.6,0.6c0.2-0.2,0.3-0.3,0.5-0.4
        c2-2,4-4,6-6c0.7-0.7,1.4-1,2.4-0.8c1.7,0.4,2.2,2.5,1,3.7c-2,2-4,4-6,6c-0.2,0.2-0.4,0.4-0.7,0.6c0.2,0.2,0.3,0.3,0.4,0.4
        c2.1,2.1,4.1,4.1,6.2,6.2c0.5,0.5,0.8,1.1,0.7,1.8c-0.1,0.9-0.5,1.6-1.3,1.9c-0.9,0.3-1.7,0.2-2.4-0.4c-1.3-1.3-2.6-2.6-4-3.9
        C75,55,74.1,54.1,73.1,53.1z"/>
        <path d="M50,0C22.4,0,0,22.4,0,50s22.4,50,50,50s50-22.4,50-50S77.6,0,50,0z M50,93.3C26.1,93.3,6.7,73.9,6.7,50
        C6.7,26.1,26.1,6.7,50,6.7S93.3,26.1,93.3,50C93.3,73.9,73.9,93.3,50,93.3z"/>
    </symbol>

    <symbol id="steam" viewBox="0 0 100 97.3">
        <path d="M73.6,36.9c0-6.2-5.4-11.3-11.7-11.3c-6.4,0-11.5,5.1-11.6,11.2c0,6.2,5.2,11.3,11.6,11.3C68.3,48.2,73.6,43.1,73.6,36.9z
		 M53.1,36.9c0-4.7,3.9-8.5,8.7-8.5c4.9,0,8.9,3.8,8.9,8.5c0,4.6-3.9,8.4-8.7,8.5C57.1,45.4,53.1,41.6,53.1,36.9z"/>
        <path d="M94.1,25.7C83.3,6.2,61.3-2.2,42.4,0.5C20.9,3.6,3.7,19.9,0.1,41.2c-0.2,1.4,0.2,1.9,1.4,2.3c7.5,3,14.9,6,22.3,9.1
		c0.3,0.1,0.6,0.2,0.8,0.3c2.4-2,5.5-3.2,8.9-3.2c0.5,0,1,0,1.5,0.1c3.1-4,6.1-8.1,9.1-12.3c0.4-0.6,0.7-1.4,0.8-2.1
		c0.8-7.5,6.3-13.4,14-14.8c7.5-1.4,15.2,2.3,18.5,9.1c5.1,10.1-1.6,22.3-13,23.6c-2,0.2-3.6,0.8-5.1,2c-3.6,2.7-7.4,5.4-11.1,8
		c-0.3,0.2-0.6,0.5-0.8,0.7c-0.2,7.4-6.3,13.4-13.8,13.4c-6.3,0-11.6-4.2-13.3-10c-1.1-1.2-14.5-6.6-19.9-8.8c1.2,3.3,2,6.3,3.2,9
		c11.7,26.8,44.8,37.8,70.9,23.5C98.2,78.1,107,49.1,94.1,25.7z"/>
        <path d="M39.5,66.7c-1.4,3.5-5.5,5.2-9.1,3.8l-6-2.5c1.6,3.4,5,5.7,9,5.7c5.5,0,9.9-4.4,9.9-9.9c0-5.5-4.4-9.9-9.9-9.9
		c-1.2,0-2.3,0.2-3.4,0.6l6,2.4c3.5,1.4,5.2,5.5,3.8,9.1L39.5,66.7z"/>
    </symbol>

    <symbol id="personal" viewBox="0 0 100 98.8">
        <path d="M28.1,52.1C28.1,52.1,28.1,52.1,28.1,52.1l12.6,0v9.1c0,2,1.6,3.6,3.6,3.6c2,0,3.6-1.6,3.6-3.6v-9.1h4.7v3.8
        c0,2,1.6,3.6,3.6,3.6c2,0,3.6-1.6,3.6-3.6v-3.8h4.2c2,0,3.6-1.6,3.6-3.6c0-2-1.6-3.6-3.6-3.6H28.2C26.7,38.7,21,34,14.3,34
        C6.4,34,0,40.4,0,48.3s6.4,14.3,14.3,14.3C20.9,62.6,26.4,58.1,28.1,52.1z M6.2,48.3c0-4.5,3.6-8.1,8.1-8.1s8.1,3.6,8.1,8.1
        s-3.6,8.1-8.1,8.1S6.2,52.8,6.2,48.3z"/>
        <path d="M50.6,0C36.7,0,24.1,5.8,15.1,15c-2.9,3-0.8,8.1,3.4,8.1c1.3,0,2.5-0.5,3.4-1.5c7.1-7.4,17.1-12,28.1-12.1
        c22.1-0.3,40.2,17.4,40.4,39.5c0.2,22.2-17.7,40.2-39.9,40.2c-11.2,0-21.4-4.7-28.7-12.2c-0.9-0.9-2.1-1.4-3.4-1.4
        c-4.2,0-6.4,5.1-3.4,8.1c9,9.3,21.6,15.1,35.5,15.1c27.3,0,49.4-22.2,49.4-49.5C100,22.1,77.9,0,50.6,0z"/>
    </symbol>

    <symbol id="set" viewBox="0 0 100 93.9">
        <path d="M45.3,52.4c0-0.2,0-0.5,0-0.7c0-15.1,0-30.3,0-45.4c0-1.1-0.1-2.3,0.3-3.4c0.9-2,3-3.3,5.1-2.9c2.3,0.4,3.9,2.2,3.9,4.5
        c0,9.2,0,18.5,0,27.7c0,5.9,0,11.8,0,17.7c0,0.8,0,1.6,0,2.4c1.9,0.6,3.5,1.5,5,2.7c5.5,4.4,7.5,11.5,4.9,18
        c-1.7,4.4-4.9,7.5-9.3,9.1c-0.5,0.2-0.6,0.4-0.6,0.9c0,2,0,3.9,0,5.9c0,2.7-2.1,4.8-4.7,4.8c-2.7,0-4.7-2.1-4.7-4.8c0-2,0-4,0-6
        c0-0.4-0.1-0.6-0.6-0.8c-6.3-2.3-10.5-8.1-10.5-14.8c0-6.6,4.1-12.6,10.3-14.8C44.8,52.6,45,52.5,45.3,52.4z M56.3,67.3
        c0-3.3-2.9-6.2-6.4-6.1c-3.5,0.1-6.3,2.9-6.2,6.4c0,3.5,2.9,6.3,6.4,6.3C53.3,73.8,56.4,71.1,56.3,67.3z"/>
        <path d="M11,11.4c0-2.1,0-4.2,0-6.3c0-0.8,0.2-1.6,0.4-2.3c0.8-2,3-3.1,5.2-2.7c2.1,0.4,3.8,2.3,3.8,4.5c0,2.1,0,4.2,0,6.3
        c0,0.4,0.1,0.6,0.5,0.8c4,1.5,7,4.1,8.9,7.9c3.6,7.4,1.2,15.8-5.7,20.2c-1,0.6-2,1.1-3.1,1.5c-0.4,0.2-0.6,0.4-0.6,0.9
        c0,10.3,0,20.5,0,30.8c0,5.4,0,10.9,0,16.3c0,2.6-2.2,4.7-4.8,4.7c-2.3-0.1-4.3-1.8-4.5-4.2c0-0.4,0-0.8,0-1.1c0-15.4,0-30.9,0-46.3
        c0-0.6-0.1-0.8-0.7-1C4.4,39,0.3,33.4,0,27.3c-0.3-6.6,3.3-12.4,9.1-15.1C9.7,11.9,10.4,11.7,11,11.4z M15.6,32.8
        c3.4,0.1,6.4-2.6,6.5-6.2c0.1-3.4-2.6-6.4-6-6.5c-3.5-0.1-6.5,2.5-6.6,6C9.3,29.7,11.9,32.6,15.6,32.8z"/>
        <path d="M79.6,65.6c0-7.8,0-15.6,0-23.5c0-0.5-0.1-0.8-0.6-0.9c-9.9-3.6-13.6-15.6-7.4-24c1.9-2.6,4.4-4.5,7.5-5.6
        c0.4-0.1,0.5-0.3,0.5-0.7c0-2.1,0-4.2,0-6.3c0-2,1.1-3.5,2.9-4.2c1.9-0.8,3.6-0.4,5.1,1c0.9,0.9,1.4,2,1.4,3.3c0,2,0,4.1,0,6.1
        c0,0.5,0.2,0.7,0.6,0.8c4.9,1.8,8.2,5.2,9.7,10.2c2.5,8.2-1.9,16.5-9.5,19.3c-0.7,0.3-0.8,0.6-0.8,1.2c0,15.1,0,30.1,0,45.2
        c0,0.6,0,1.3,0,1.9c-0.2,2.5-2.4,4.5-4.8,4.4c-2.6-0.1-4.6-2.1-4.6-4.8C79.6,81.3,79.6,73.5,79.6,65.6
        C79.6,65.6,79.6,65.6,79.6,65.6z M90.6,26.4c0-3.5-2.8-6.3-6.3-6.3c-3.5,0-6.3,2.8-6.4,6.3c0,3.5,2.8,6.4,6.3,6.4
        C87.8,32.8,90.6,30,90.6,26.4z"/>
    </symbol>

    <symbol id="trend" viewBox="0 0 100 85.9">
        <path d="M48.7,44c10.8-10.8,21.2-21.2,31.9-31.8c-1.3-1.3-2.8-2.7-4.2-4.1c-0.4-0.4-0.8-0.8-1.1-1.3c-0.6-0.9-0.5-1.6,0.6-1.9
		C77.2,4.3,78.6,4,80,3.7c5.6-1.2,11.2-2.4,16.9-3.6C97.2,0,97.6,0,98,0c1.3,0,2.1,0.7,2,2c-0.2,1.5-0.5,3.1-0.8,4.6
		c-1.2,5.4-2.3,10.9-3.5,16.3c-0.1,0.3-0.1,0.6-0.2,0.9c-0.5,1.4-1.2,1.7-2.3,0.7c-1.1-0.9-2.2-2-3.2-3.1c-0.7-0.7-1.4-1.5-2.1-2.3
		c-2,2-3.9,3.9-5.8,5.7C71.6,35.3,61.2,45.7,50.8,56.1c-1.4,1.4-2.5,1.4-3.9,0c-2.8-2.8-5.5-5.5-8.3-8.3c-0.2-0.2-0.5-0.4-0.9-0.8
		c-0.6,0.7-1.2,1.4-1.9,2c-9.3,9.3-18.5,18.5-27.8,27.8c-1.4,1.4-2.3,1.5-3.7,0.2c-1.4-1.2-2.6-2.5-3.9-3.8
		c-0.8-0.8-0.5-2.2,0.4-3.1C4.9,66,9,61.9,13.1,57.8C20.7,50.2,28.4,42.6,36,35c1.4-1.4,2.5-1.4,3.9,0c2.5,2.5,5,5,7.5,7.5
		C47.8,43,48.2,43.5,48.7,44z"/>
        <path d="M87.6,25.7c0,0.3,0,1.1,0,1.4c0,13.1,0,26.1,0.1,39.2c0,5.6,0.1,11.2,0.1,16.8c0,2.1-0.7,2.8-2.8,2.8c-3.1,0-6.2,0-9.2,0
		c-2.4,0-3-0.6-3-3c0-10,0-20.1,0-30.1c0-3.7,0-7.4,0-11.1c0-0.4,0.1-1,0.4-1.3C77.8,35.6,87.3,26,87.6,25.7z"/>
        <path d="M68.2,45.4c0,1,0,2.3,0,3.4c0,11.6,0,23.1,0,34.7c0,1.6-0.7,2.4-2.4,2.4c-3.4,0-6.9,0-10.3,0c-1.6,0-2.4-0.7-2.4-2.3
		c0-7.6,0-15.1,0-22.7c0-0.3,0.2-0.7,0.4-0.9c4.5-4.5,9.1-9,13.6-13.6C67.5,46.1,68,45.5,68.2,45.4z"/>
        <path d="M37.2,53.3c1.9,1.9,3.6,3.6,5.3,5.3c1.5,1.6,3.2,2.8,5.5,3c0.8,0.1,0.7,0.6,0.7,1.1c0,5.4,0,10.8,0,16.2c0,1.6,0,3.1,0,4.7
		c0,1.5-0.7,2.3-2.2,2.3c-3.5,0-7,0-10.5,0c-1.5,0-2.3-0.9-2.3-2.5c0-5.8,0-11.7,0-17.5c0-2.7,0-5.4,0-8c0-0.4,0.2-1,0.5-1.3
		C35.1,55.4,36.1,54.4,37.2,53.3z"/>
        <path d="M29.1,61.3c0,0.5,0,0.7,0,0.8c0,7.1,0,14.2,0,21.3c0,1.7-0.8,2.5-2.5,2.5c-3.4,0-6.7,0-10.1,0c-1.7,0-2.4-0.7-2.4-2.4
		c0-2.1,0-4.2,0-6.3c0-0.4,0.2-1,0.4-1.2C19.3,71.2,24.2,66.3,29.1,61.3z"/>
    </symbol>

    <symbol id="wallet" viewBox="0 0 100 69.2">
        <path d="M21.8,25.7C9.7,25.7,0,35.5,0,47.5c0,12,9.7,21.8,21.8,21.8c12,0,21.8-9.7,21.8-21.8C43.5,35.5,33.8,25.7,21.8,25.7z
		 M21.8,65.5c-9.9,0-18-8-18-18c0-9.9,8-18,18-18s18,8,18,18C39.7,57.4,31.7,65.5,21.8,65.5z"/>
        <path d="M27.6,47.7c-0.8-0.8-1.7-1.3-2.7-1.7c-0.8-0.3-1.5-0.6-2.3-0.8c-0.2-0.1-0.3-0.1-0.3-0.4c0-1,0-2,0-3c0-0.7,0-1.3,0-2
		c0-0.2,0-0.2,0.2-0.2c0.1,0,0.3,0,0.4,0.1c0.7,0.1,1.2,0.5,1.5,1.1c0.2,0.5,0.3,1,0.3,1.5c0,0.1,0,0.2,0.2,0.2c1.1,0,2.2,0,3.3,0
		c0.2,0,0.2,0,0.2-0.2c0-0.4-0.1-0.8-0.1-1.2c-0.3-1.7-1.3-3-2.9-3.8c-0.9-0.5-1.9-0.6-2.9-0.7c-0.2,0-0.2-0.1-0.2-0.2
		c0-0.5,0-1.1,0-1.6c0-0.1,0-0.2-0.1-0.2c-0.4,0-0.8,0-1.2,0c0,0.1,0,0.2,0,0.3c0,0.5,0,1.1,0,1.6c0,0.1,0,0.2-0.2,0.2
		c-0.4,0-0.8,0.1-1.1,0.2c-1.5,0.3-2.7,1-3.6,2.2c-0.7,1-1,2.1-1.1,3.3c0,0.9,0.1,1.7,0.5,2.5c0.5,1.1,1.4,1.8,2.4,2.3
		c0.9,0.5,1.9,0.9,2.9,1.2c0.2,0.1,0.2,0.1,0.2,0.3c0,1.9,0,3.7,0,5.6c0,0.1,0,0.1,0,0.2c-0.2,0-0.3-0.1-0.5-0.1
		c-0.8-0.2-1.4-0.7-1.7-1.4c-0.2-0.6-0.3-1.2-0.3-1.8c0-0.2,0-0.2-0.2-0.2c-1.2,0-2.3,0-3.5,0c-0.1,0-0.1,0-0.2,0
		c-0.1,0.7,0,1.3,0.1,2c0.2,1.1,0.6,2.1,1.5,2.9c1,1,2.2,1.4,3.5,1.7c0.4,0.1,0.9,0.1,1.3,0.2c0,0.9,0,1.8,0,2.8c0.4,0,0.7,0,1.1,0
		c0.2,0,0.2-0.1,0.2-0.2c0-0.8,0-1.5,0-2.3c0-0.1,0-0.2,0-0.3c0.1,0,0.2,0,0.3,0c1.1-0.1,2.1-0.3,3.1-0.8c1.4-0.7,2.4-1.8,2.9-3.3
		c0.3-1,0.4-2.1,0.3-3.1C28.7,49.4,28.3,48.4,27.6,47.7z M21,44.5c-0.4-0.2-0.8-0.4-1.2-0.6c-0.5-0.3-0.9-0.7-1-1.3
		c-0.3-1.2,0.4-2.5,1.6-2.9c0.2-0.1,0.4-0.1,0.6-0.2C21,41.2,21,42.9,21,44.5z M23,54.3c-0.2,0-0.4,0.1-0.6,0.1c0-1.9,0-3.7,0-5.6
		c1,0.3,1.9,0.7,2.4,1.7C25.5,52.1,24.6,53.9,23,54.3z"/>
        <path d="M61.3,49.3c3.2,0.6,6.1-0.2,8.5-2.3c4.5,3.9,10.5,3,13.9-0.7c3.3-3.6,3.4-9.4,0.2-13.1c-3.4-3.9-9.6-4.8-14.1-0.9
		c-4.4-3.8-10.3-3-13.6,0.4c-3.4,3.5-3.8,9-0.8,12.8C56.9,47.6,58.9,48.9,61.3,49.3z M63.3,34.3c2.9,0,5.2,2.3,5.2,5.2
		c0,2.9-2.3,5.2-5.2,5.2c-2.9,0-5.2-2.3-5.2-5.2C58.1,36.7,60.4,34.3,63.3,34.3z"/>
        <path d="M99.9,5.5c-0.2-1.2-0.7-2.3-1.5-3.2C97.1,0.8,95.4,0,93.3,0C67,0,40.7,0,14.4,0c0,0-0.1,0-0.1,0c-3.7,0.1-6.6,2.9-6.6,6.6
		c0,4.8,0,9.6,0,14.5h85.6c0,0,0,27.2,0,38.2c-15.4,0-30.7,0-46.1,0c0,2.2,0,4.4,0,6.6c0.2,0,0.3,0,0.4,0c15.3,0,30.5,0,45.8,0
		c2.9,0,5.4-2,6.2-4.7c0.1-0.3,0.2-0.7,0.3-1.1c0-18.1,0-36.2,0-54.3C100,5.7,99.9,5.6,99.9,5.5z M93.4,13.1c-26.3,0-52.6,0-79,0
		c0-2.2,0-4.3,0-6.5c26.3,0,52.6,0,79,0C93.4,8.8,93.4,11,93.4,13.1z"/>
    </symbol>

    <symbol id="user-link" viewBox="0 0 100 93.2">
        <path d="M59.7,80.7c-1.6,0-3.1,0-4.6,0c-0.3,0-0.6,0-0.9,0c-1.2,0-1.2,0-1.3-1.2c-0.5-7.9,5.3-14.6,13.1-15.4c0.3,0,0.6,0,0.9,0
		c6.4,0,12.7-0.1,19.1,0c7.1,0.1,13.3,5.9,13.8,13c0.5,6.3-2.5,11.8-7.9,14.5c-1.9,1-4,1.5-6.2,1.5c-4.2,0-8.3,0-12.5,0
		c-0.1,0-0.3,0-0.5,0c0.1-0.2,0.2-0.3,0.3-0.4c1.6-1.7,3-3.6,3.9-5.7c0.2-0.4,0.4-0.5,0.8-0.5c2.6,0,5.1,0,7.7,0
		c4.4,0,7.8-3.4,7.8-7.8c0-4.7-3.3-8.1-8-8.1c-5.9,0-11.9,0-17.8,0c-5.3,0-9,4.4-8,9.7C59.6,80.4,59.7,80.5,59.7,80.7z"/>
        <path d="M66.5,76.5c1.6,0,3.1,0,4.6,0c0.3,0,0.6,0,0.9,0c1.2,0,1.2,0,1.3,1.2c0.5,7.9-5.3,14.6-13.1,15.4c-0.3,0-0.6,0-0.9,0
		c-6.4,0-12.7,0.1-19.1,0c-7.1-0.1-13.3-5.9-13.8-13c-0.5-6.3,2.5-11.8,7.9-14.5c1.9-1,4-1.5,6.2-1.5c4.2,0,8.3,0,12.5,0
		c0.1,0,0.3,0,0.5,0c-0.1,0.2-0.2,0.3-0.3,0.4c-1.6,1.7-3,3.6-3.9,5.7c-0.2,0.4-0.4,0.5-0.8,0.5c-2.6,0-5.1,0-7.7,0
		c-4.4,0-7.8,3.4-7.8,7.8c0,4.7,3.3,8.1,8,8.1c5.9,0,11.9,0,17.8,0c5.3,0,9-4.4,8-9.7C66.5,76.8,66.5,76.7,66.5,76.5z"/>
        <path d="M72.7,32c1-8.2-1.2-15.6-6.6-22c-9.8-11.7-27.3-13.4-39.2-4c-6.1,4.9-9.8,11.2-10.6,19c-1.1,11,3.1,19.7,11.9,26.4
		c-0.1,0.1-0.2,0.1-0.3,0.2c-3.8,1.6-7.4,3.6-10.6,6.2C7.8,65.3,2.2,74.9,0.4,86.9c-0.2,1.3-0.3,2.5-0.4,3.8c0,0.7,0,1.5,0,2.2
		c2.6,0,5.3,0,8,0c0-0.7,0-1.3,0-1.9c0.5-8.8,3.8-16.5,9.8-23c6.5-6.9,14.6-10.9,24.2-11.4c2.6-0.1,5.2-0.1,7.8,0.1
		c2.9,0.3,5.8,1.2,8.5,2.3c0.3,0.1,0.6,0.1,0.9-0.1c1.9-1,3.7-2,5.6-2.9c0.8-0.4,1.7-0.7,2.7-1c-2.2-1.4-4.4-2.4-6.8-3.4
		C67.6,46.7,71.7,40.3,72.7,32z M44.5,47.2c-10.6,0-19.1-8.6-19.1-19.1S33.9,9,44.5,9s19.1,8.6,19.1,19.1S55.1,47.2,44.5,47.2z"/>
    </symbol>

    <symbol id="icon-percent" viewBox="0 0 100 100">
        <path d="M38.9,46.1c-3.4,0-6.1-1.1-8.3-3.3c-2.2-2.2-3.3-4.9-3.3-8.1c0-3.2,1.1-5.8,3.4-8.1c2.2-2.2,5-3.4,8.3-3.4
        c3.3,0,6.1,1.1,8.3,3.3c2.2,2.2,3.3,4.9,3.3,8.1s-1.1,5.9-3.3,8.1S42.3,46.1,38.9,46.1z M34.6,39c1.1,1.2,2.5,1.7,4.2,1.7
        c1.7,0,3.1-0.6,4.2-1.8c1.1-1.2,1.7-2.6,1.7-4.3s-0.6-3.1-1.7-4.3c-1.1-1.2-2.5-1.7-4.2-1.7c-1.7,0-3.1,0.6-4.2,1.7
        c-1.1,1.2-1.7,2.6-1.7,4.3C32.9,36.4,33.5,37.8,34.6,39z M69.5,73.5c-2.2,2.2-5,3.3-8.3,3.3c-3.4,0-6.1-1.1-8.3-3.3
        c-2.2-2.2-3.3-4.9-3.3-8.1c0-3.2,1.1-5.9,3.3-8.1c2.2-2.2,5-3.3,8.3-3.3c3.3,0,6.1,1.1,8.3,3.3c2.2,2.2,3.3,4.9,3.3,8.1
        C72.8,68.5,71.7,71.2,69.5,73.5z M56.9,69.6c1.1,1.2,2.5,1.7,4.2,1.7c1.7,0,3.1-0.6,4.2-1.7c1.1-1.2,1.7-2.6,1.7-4.2
        c0-1.7-0.6-3.1-1.7-4.2c-1.1-1.2-2.5-1.7-4.2-1.7c-1.7,0-3.1,0.6-4.2,1.7c-1.1,1.2-1.7,2.6-1.7,4.2C55.3,67,55.8,68.4,56.9,69.6z"/>
        <path d="M33.7,70.1l-2.1-1.9c-0.5-0.5-0.6-1.3-0.1-1.9L64.4,30c0.5-0.5,1.3-0.6,1.9-0.1l2.1,1.9c0.5,0.5,0.6,1.3,0.1,1.9L35.6,70
        C35.1,70.5,34.3,70.6,33.7,70.1z"/>
        <path d="M50,0C22.4,0,0,22.4,0,50s22.4,50,50,50s50-22.4,50-50S77.6,0,50,0z M50,93.9C25.7,93.9,6.1,74.3,6.1,50S25.7,6.1,50,6.1
        S93.9,25.7,93.9,50S74.3,93.9,50,93.9z"/>
        <path d="M50,3C24.1,3,3,24.1,3,50s21,47,47,47s47-21,47-47S76,3,50,3z M50,91.3C27.2,91.3,8.7,72.8,8.7,50S27.2,8.7,50,8.7
        S91.3,27.2,91.3,50S72.8,91.3,50,91.3z"/>
    </symbol>

    <symbol id="icon-copy" viewBox="0 0 97.1 100">
    <path d="M11.5,9.6C12.4,7,14,4.9,16.3,3.3c3-2.2,6.4-3.3,10.3-3.3c18.3,0,36.5,0,54.8,0c8.7,0,15.7,6,15.7,13.4
	c0,18.2,0,36.3,0,54.5c0,2.4,0.1,4.9-0.5,7.3c-1.5,5.7-5.9,9-12.5,10.3c-0.8,0.2-1,0.4-1.1,1.1c-0.1,7.7-6.8,13.4-15.9,13.4
	c-17.3,0-34.6,0-51.9,0C6.9,100,0,93.9,0,86.6c0-15.2,0-30.3,0-45.5c0-4.4,0-8.7,0-13.1c0-7.2,5.7-12.7,14.1-13.6
	c0.9-0.1,1.9-0.1,2.9-0.1c12.3,0,24.6,0,36.9,0c3.2,0,6.1,1.1,8.4,3c5.6,4.7,11.2,9.5,16.9,14.3c2.6,2.2,4,4.9,4,8.1
	c0,12.7,0,25.4,0,38.1c0,0.3,0,0.6,0,1.1c0.8-0.3,1.4-0.4,1.9-0.7c2.8-1.3,4.2-3.4,4.2-6.2c0-7.1,0-14.3,0-21.4
	c0-11.8,0-23.6,0-35.4c0-1.3,0-2.7-0.4-4c-0.9-2.8-3.9-4.6-7.4-4.7c-7.7,0-15.5,0-23.2,0c-10.3,0-20.6,0-30.8,0
	c-2.7,0-4.9,0.7-6.7,2.5c-0.2,0.2-0.5,0.4-0.8,0.4C17,9.6,14.3,9.6,11.5,9.6z M7.9,56.9C7.9,56.9,7.9,56.9,7.9,56.9
	c0,9.8,0,19.5,0,29.3c0,4.2,3.5,7.1,8.5,7.1c16.8,0,33.6,0,50.4,0c5,0,8.5-2.9,8.5-7.2c0-12.8,0-25.6,0-38.4c0-2.8,0-5.5,0-8.3
	c0-1.2-0.2-1.3-1.6-1.3c-2.6,0-5.2,0-7.8,0c-6.7,0-11.6-4.2-11.6-9.9c0-1.9,0-3.8,0-5.8c0-1.5,0-1.5-1.8-1.5c-11.9,0-23.8,0-35.8,0
	c-5.5,0-8.8,2.7-8.8,7.4C7.9,37.9,7.9,47.4,7.9,56.9z"/>
    </symbol>

    <symbol id="icon-crash" viewBox="0 0 100 100">
        <path d="M95,46.7C94,35.6,89.7,26,81.9,18.1C74,10.3,64.5,6,53.3,5c0-1.7,0-3.3,0-5c-2.2,0-4.4,0-6.6,0c0,1.6,0,3.3,0,5
        C35.6,6,26,10.3,18.1,18.1C10.3,26,6,35.5,5,46.7c-1.7,0-3.3,0-5,0c0,2.2,0,4.4,0,6.6c1.6,0,3.3,0,5,0C6,64.4,10.3,74,18.1,81.9
        C26,89.7,35.5,94,46.7,95c0,1.7,0,3.3,0,5c2.2,0,4.4,0,6.6,0c0-1.7,0-3.3,0-5c11.1-1,20.7-5.3,28.5-13.1C89.7,74.1,94,64.5,95,53.3
        c1.7,0,3.3,0,5,0c0-2.2,0-4.4,0-6.6C98.4,46.7,96.7,46.7,95,46.7z M86,53.3c-0.8,15-13.4,31-32.6,32.8c0-2.5,0-5,0-7.5
        c-2.3,0-4.4,0-6.6,0c0,2.5,0,5,0,7.4C31.6,85.1,15.7,72.4,14,53.3c2.5,0,5,0,7.5,0c0-2.2,0-4.3,0-6.6c-2.5,0-5,0-7.4,0
        c0.8-15.1,13.5-31,32.7-32.8c0,2.5,0,5,0,7.5c2.2,0,4.4,0,6.6,0c0-2.5,0-5,0-7.4C68.5,14.9,84.4,27.7,86,46.7c-2.5,0-5,0-7.5,0
        c0,2.3,0,4.4,0,6.6C81,53.3,83.5,53.3,86,53.3z"/>
        <circle cx="47.4" cy="52.1" r="2.6"/>
        <path d="M50,28.5c-12.6,0-22.9,10.2-22.9,22.9c0,8.6,4.8,16.1,11.8,20c2.4-3.8,5.2-7.4,7.8-11.1c1.3-1.8,2.9-3.3,4.2-5.1
        c1.6-2.2,1.6-5-0.3-6.6c-1.5-1.3-3.7-1.5-5.5-0.5l0,0c0,0-2.1,1-2.8,3.1c-0.5,1.5-0.3,2.7,0.5,4.2c0.6,1.1-0.2,2.7-1.9,3.5
        c-1.5,0.7-5.3,0.8-6.3-2.8c-1.1-4,4-7.1,4-7.1c-1.5-0.9-3.2-1.6-4.5-2.4c0.7-0.6,1.4-1,2.1-1.3c0.1,0,0.2-0.1,0.3-0.1
        c0.1,0,0.2-0.1,0.3-0.1c0.1,0,0.2-0.1,0.4-0.1c0.2,0,0.3-0.1,0.5-0.1c0,0,0.1,0,0.1,0c0.5,0,1,0,1.5,0.1c0.8,0.2,1.4,0.4,2.1,0.5
        c1.2,0,2-1.4,3.2-3.3c2.5-4,4.7-6.7,8-7.9c0.9-0.3,1.8-0.5,2.6-0.6c2.5-0.3,4.7,0.1,4.7,0.1s-2.7,1.1-4.2,2.3
        c-2.1,1.5-2.6,2.8-2.6,2.8s4.5-2.6,9.8-1.1c3.7,1.1,4.9,3.4,4.9,3.4s-1.5-0.6-4.1-0.5c-1.5,0.1-2.7,0.3-3.5,0.5c-0.2,0-0.3,0-0.3,0
        s0.1,0,0.1,0c-0.7,0.2-1.2,0.4-1.6,0.6c2.4,0.1,3.6,0.2,4.9,0.5c2.5,0.6,3.6,1.5,3.9,1.7c-0.4,0.8-3.1,3.9-4.1,6
        c-2.5,5.1-4.8,11.6-0.7,20.4c0.4-0.3,0.9-0.6,1.4-1c5.3-4.2,8.8-10.7,8.8-18C72.9,38.8,62.6,28.5,50,28.5z M47.4,48.7
        c1.9,0,3.4,1.5,3.4,3.4c0,1.9-1.5,3.4-3.4,3.4s-3.4-1.5-3.4-3.4C44.1,50.2,45.6,48.7,47.4,48.7z"/>
    </symbol>

    <symbol id="icon-classic" viewBox="0 0 99.8 100">
        <path d="M95,44.1c-1.1-8.1-4.2-15.5-9-21.7c1.2-1.2,2.4-2.4,3.7-3.6c-2.8-2.8-5.7-5.7-8.2-8.2c-1.3,1.2-2.5,2.4-3.6,3.6
		C71.7,9.3,64.2,6.1,56.1,5c0-1.6,0-3.3,0-5v0H43.6v5c-8.2,1.1-15.6,4.4-21.8,9.3c-1.1-1.1-2.2-2.2-3.3-3.3
		c-2.5,2.5-5.5,5.3-8.4,8.1c1.2,1.2,2.4,2.3,3.5,3.5C9,28.8,5.9,36.1,4.8,44.2c-1.6,0-3.2,0-4.8,0c0,4.2,0,8,0,12.2
		c1.7,0,3.3,0,4.9,0c1.1,8,4.3,15.3,9.1,21.4c-1.1,1.1-2.2,2.3-3.4,3.4c2.6,2.9,5.4,6,7.5,8.4c1.3-1.3,2.6-2.5,3.9-3.7
		c6.2,4.8,13.7,8.1,21.8,9.2c0,1.6,0,3.3,0,5c4.2,0,8.3,0,12.3,0c0-1.7,0-3.3,0-5c8.1-1.1,15.5-4.3,21.7-9.1
		c1.3,1.3,2.5,2.5,3.9,3.9c2.6-2.5,5.4-5.3,8-7.8c-1.4-1.4-2.6-2.7-3.9-4c4.8-6.1,8.1-13.5,9.2-21.6c1.6,0,3.2,0,4.9,0
		c0-4.3,0-8.3,0-12.4C98.2,44.1,96.6,44.1,95,44.1z M49.9,84.1c-18.8,0-34.1-15.3-34.1-34.1s15.3-34.1,34.1-34.1
		C68.7,15.9,84,31.2,84,50S68.7,84.1,49.9,84.1z"/>
        <path d="M61.1,46.1c-0.5,0.2-1,0.1-1.4-0.3l-9-12.8c-0.4-0.6-1.4-0.6-1.8,0l-8.4,13c-0.3,0.5-0.9,0.6-1.4,0.4L26,39.7
		c-0.8-0.4-1.8,0.4-1.5,1.3L33,66.8c0.1,0.4,0.6,0.7,1,0.7h31.2c0.5,0,0.9-0.3,1-0.7l9-25.9c0.3-0.9-0.6-1.7-1.5-1.3L61.1,46.1z"/>
    </symbol>

    <symbol id="icon-endlessly" viewBox="0 0 100 46.6">
    <path d="M100,23c0,1.3-0.1,2.7-0.3,4c0,0.2-0.1,0.3-0.1,0.5c-1.6,9.3-9,16.9-18.3,18.6c-8.1,1.5-15.3-0.6-21.2-6.4
	C51.3,30.8,42.5,22,33.6,13.1c-2.9-2.9-6.4-4.3-10.4-4.3C16,8.8,9.9,14.1,8.8,21.2c-1.1,7.4,3.6,14.5,10.8,16.2
	c5.3,1.3,10,0,13.9-3.9c2.7-2.7,5.4-5.4,8.1-8.1l0,0c0.1-0.1,0.3-0.1,0.4,0c1.9,1.9,3.8,3.8,5.7,5.7c0.1,0.1,0.1,0.4,0,0.5
	c0,0,0,0,0,0c-2.7,2.7-5.4,5.4-8.1,8.1c-4.8,4.7-10.6,7-17.2,6.8C11.3,46.2,2.2,38.2,0.3,27.2c-0.5-3.1-0.3-5.5,0.1-8
	C2.2,10.1,7.6,3.9,16.4,1.2C25.2-1.6,33.2,0.5,39.8,7c8.9,8.8,17.7,17.7,26.6,26.6c4.1,4,9,5.3,14.5,3.7c5.4-1.6,8.8-5.3,10.1-10.8
	c1.9-8.1-3.7-16.2-12-17.4c-4.9-0.7-9.1,0.7-12.6,4.1c-2.7,2.6-5.3,5.3-8,8l0,0c-0.2,0.2-0.4,0.2-0.5,0c-1.9-1.9-3.7-3.8-5.7-5.7
	c-0.1-0.1-0.1-0.3,0-0.5c0.3-0.3,0.7-0.7,1.1-1.1c2.6-2.6,5.1-5.2,7.7-7.7c3.9-3.6,8.5-5.6,13.8-6c9-0.7,17.1,3.6,21.7,10.9
	c2,3.2,3.1,6.8,3.4,10.5l0,0.3C100,22.2,100,22.7,100,23L100,23z"/>
    </symbol>

    <symbol id="icon-login" viewBox="0 0 96.5 100">
        <path d="M66.9,53.7c-0.1,0-0.2,0-0.4,0c-15.2,0-30.4,0-45.6,0c-1.1,0-2.1-0.3-2.9-1.1c-1.1-1.1-1.3-2.5-0.8-3.9
		c0.6-1.4,1.7-2.2,3.2-2.3c0.2,0,0.3,0,0.5,0c15.2,0,30.4,0,45.6,0c0.1,0,0.2,0,0.4,0c-0.1-0.1-0.2-0.2-0.3-0.3
		c-2.1-2.1-4.1-4.2-6.2-6.2c-0.9-0.9-1.3-1.9-1.2-3.1c0.2-1.9,1.8-3.4,3.8-3.3c1,0,1.8,0.4,2.6,1.1c4.3,4.3,8.5,8.5,12.8,12.8
		c1.5,1.5,1.5,3.7,0.1,5.3c-0.2,0.2-0.4,0.4-0.5,0.5c-4.1,4.1-8.2,8.2-12.2,12.2c-0.7,0.7-1.5,1.1-2.4,1.2c-1.9,0.2-3.7-1.2-4-3.1
		c-0.2-1.3,0.2-2.3,1.1-3.2c2.1-2.1,4.2-4.2,6.3-6.3C66.8,53.9,66.8,53.8,66.9,53.7C66.9,53.7,66.9,53.7,66.9,53.7z"/>
        <path d="M46.5,0C25.7,0,7.9,12.7,0.3,30.7c-1.2,2.9,0.9,6,4,6h0c1.7,0,3.3-1.1,4-2.7C14.3,19.8,28,9.6,44.2,8.7
		c24.5-1.3,44.9,19,43.6,43.6c-1.2,21.8-19.2,39.1-41.3,39.1C29.3,91.4,14.6,80.9,8.3,66c-0.7-1.6-2.2-2.6-4-2.6h0
		c-3.1,0-5.2,3.2-4,6C8,87.5,25.9,100.2,46.8,100c27.8-0.2,50-22.9,49.6-50.7C96.1,22,73.8,0,46.5,0z"/>
    </symbol>

    <symbol id="icon-inv-steam" viewBox="0 0 100 97.3">
        <path d="M73.6,36.9c0-6.2-5.4-11.3-11.7-11.3c-6.4,0-11.5,5.1-11.6,11.2c0,6.2,5.2,11.3,11.6,11.3C68.3,48.2,73.6,43.1,73.6,36.9z
		 M53.1,36.9c0-4.7,3.9-8.5,8.7-8.5c4.9,0,8.9,3.8,8.9,8.5c0,4.6-3.9,8.4-8.7,8.5C57.1,45.4,53.1,41.6,53.1,36.9z"/>
        <path d="M94.1,25.7C83.3,6.2,61.3-2.2,42.4,0.5C20.9,3.6,3.7,19.9,0.1,41.2c-0.2,1.4,0.2,1.9,1.4,2.3c7.5,3,14.9,6,22.3,9.1
		c0.3,0.1,0.6,0.2,0.8,0.3c2.4-2,5.5-3.2,8.9-3.2c0.5,0,1,0,1.5,0.1c3.1-4,6.1-8.1,9.1-12.3c0.4-0.6,0.7-1.4,0.8-2.1
		c0.8-7.5,6.3-13.4,14-14.8c7.5-1.4,15.2,2.3,18.5,9.1c5.1,10.1-1.6,22.3-13,23.6c-2,0.2-3.6,0.8-5.1,2c-3.6,2.7-7.4,5.4-11.1,8
		c-0.3,0.2-0.6,0.5-0.8,0.7c-0.2,7.4-6.3,13.4-13.8,13.4c-6.3,0-11.6-4.2-13.3-10c-1.1-1.2-14.5-6.6-19.9-8.8c1.2,3.3,2,6.3,3.2,9
		c11.7,26.8,44.8,37.8,70.9,23.5C98.2,78.1,107,49.1,94.1,25.7z"/>
        <path d="M39.5,66.7c-1.4,3.5-5.5,5.2-9.1,3.8l-6-2.5c1.6,3.4,5,5.7,9,5.7c5.5,0,9.9-4.4,9.9-9.9c0-5.5-4.4-9.9-9.9-9.9
		c-1.2,0-2.3,0.2-3.4,0.6l6,2.4c3.5,1.4,5.2,5.5,3.8,9.1L39.5,66.7z"/>
    </symbol>

    <symbol id="icon-market" viewBox="0 0 100 81.2">
        <path d="M38.7,53.9c0.5,1.5,1.1,2.8,1.6,4.2c0.4,1.1,0.4,1.1,1.6,1.1c12.9,0,25.8,0,38.7,0c5.4,0,9.8,3.6,10.9,8.8
        c1.5,7-4.2,13.6-11.2,13.2c-6.8-0.4-11.6-7-9.9-13.6c0.1-0.2,0.1-0.5,0.2-0.8c-7.4,0-14.7,0-21.9,0c0.1,1.2,0.4,2.3,0.4,3.5
        c0,6-4.9,10.9-10.9,10.9c-5.9,0-10.8-4.9-10.8-10.9c0-4.2,1.8-7.3,5.3-9.5c0.5-0.3,0.5-0.5,0.3-1c-4.4-11.6-8.7-23.1-13.1-34.7
        c-2.1-5.7-4.3-11.3-6.4-17c-0.2-0.5-0.4-0.6-0.9-0.6c-2.9,0-5.9,0-8.8,0c-1.8,0-3.3-1.2-3.6-3C-0.3,2.8,0.6,1,2.2,0.4
        C2.7,0.1,3.3,0,3.8,0c3.9,0,7.8,0,11.7,0c1.8,0,3.1,0.9,3.7,2.6c1.3,3.4,2.6,6.7,3.8,10.1c0.2,0.6,0.5,0.7,1,0.7c24,0,48,0,72,0
        c2.1,0,3.6,1.3,3.9,3.3c0.1,0.5,0,1.1-0.2,1.6c-3.4,11-6.7,22-10.1,32.9c-0.5,1.8-1.9,2.7-3.8,2.7c-15.4,0-30.9,0-46.3,0
        C39.3,53.9,39,53.9,38.7,53.9z M26.2,20.9c0.1,0.2,0.1,0.3,0.1,0.4c1.3,3.5,2.6,6.9,3.9,10.4c0.2,0.5,0.4,0.7,0.9,0.7
        c5.3,0,10.5,0,15.8,0c0.2,0,0.4,0,0.8,0c-0.3-3.9-0.6-7.7-0.9-11.5C39.9,20.9,33.1,20.9,26.2,20.9z M91.2,20.9c-6.4,0-12.8,0-19.2,0
        c-0.3,3.8-0.6,7.6-0.9,11.4c0.2,0,0.3,0,0.4,0c5.2,0,10.5,0,15.7,0c0.5,0,0.5-0.2,0.6-0.6c0.8-2.8,1.7-5.5,2.5-8.3
        C90.7,22.7,90.9,21.9,91.2,20.9z M51.5,32.4c0.2,0,0.4,0,0.5,0c5,0,9.9,0,14.9,0c0.5,0,0.6-0.2,0.6-0.6c0.2-3.3,0.5-6.7,0.8-10
        c0-0.3,0-0.5,0-0.8c-5.9,0-11.8,0-17.7,0C50.9,24.8,51.2,28.6,51.5,32.4z M67.1,36.2c-5.1,0-10.2,0-15.3,0c0.3,3.4,0.5,6.8,0.8,10.2
        c4.6,0,9.2,0,13.8,0C66.6,43,66.9,39.6,67.1,36.2z M48.8,46.4c0-0.3,0-0.4,0-0.6c-0.2-3-0.5-5.9-0.7-8.9c0-0.6-0.2-0.7-0.7-0.7
        c-4.9,0-9.8,0-14.7,0c-0.2,0-0.4,0-0.6,0c0,0.2,0.1,0.3,0.1,0.4c1.2,3.1,2.4,6.2,3.5,9.4c0.1,0.4,0.4,0.4,0.7,0.4c4,0,7.9,0,11.9,0
        C48.4,46.4,48.6,46.4,48.8,46.4z M70.1,46.4c0.1,0,0.2,0,0.3,0c4.2,0,8.3,0,12.5,0c0.4,0,0.5-0.2,0.6-0.5c0.9-3.1,1.9-6.1,2.8-9.2
        c0-0.1,0.1-0.3,0.1-0.5c-0.1,0-0.2,0-0.3,0c-4.9,0-9.9,0-14.8,0c-0.4,0-0.5,0.2-0.5,0.5c-0.2,3-0.5,5.9-0.7,8.9
        C70.1,45.9,70.1,46.1,70.1,46.4z M80.8,73.7c1.9,0,3.5-1.5,3.5-3.4c0-1.9-1.5-3.5-3.4-3.5c-1.9,0-3.5,1.6-3.5,3.5
        C77.4,72.1,78.9,73.7,80.8,73.7z M34.7,70.2c0,1.9,1.5,3.5,3.4,3.5c1.9,0,3.4-1.6,3.4-3.5c0-1.9-1.6-3.5-3.4-3.4
        C36.2,66.8,34.7,68.3,34.7,70.2z"/>
    </symbol>

    <symbol id="icon-crash-gamer" viewBox="0 0 79.9 100">
        <path class="st0" d="M39.9,0c-15,0-27.1,12.2-27.1,27.2c0,15.1,12.2,27.1,27.3,27.1c14.9,0,27-12.3,27-27.2
		C67.1,12.1,54.9,0,39.9,0z M40,46.2c-10.5,0-19.1-8.5-19.1-19.1c0-10.5,8.5-19.1,19.1-19.1S59,16.6,59,27.1
		C59,37.7,50.5,46.2,40,46.2z"/>
        <path class="st0" d="M69.2,71.3C69.2,71.3,69.1,71.2,69.2,71.3c-3.4-4.3-7.7-7.7-12.4-10.2l-2.2-1.2c-1.1-0.6-2.5-0.6-3.7-0.1
		c-3.5,1.6-7.4,2.5-11.5,2.5c-3.9,0-7.7-0.8-11.1-2.3c-1.2-0.5-2.5-0.4-3.6,0.2l-2.3,1.3c-4.4,2.5-8.4,5.8-11.6,9.7
		c0,0,0,0.1-0.1,0.1C5.4,78,1.7,86.2,0.1,95.2c-0.5,2.5,1.5,4.8,4.1,4.8h0c2,0,3.7-1.4,4.1-3.4c2.3-12.1,8.6-22.1,17.1-27.6
		c1-0.7,2.3-0.8,3.5-0.4c3.4,1.1,7,1.7,10.6,1.7c3.9,0,7.7-0.6,11.3-1.9c1.2-0.4,2.5-0.3,3.5,0.4c8.7,5.4,15.3,15.6,17.5,27.9
		c0.4,2,2.1,3.4,4.1,3.4h0c2.6,0,4.5-2.3,4.1-4.8C78.2,86.2,74.5,78,69.2,71.3z"/>
    </symbol>

    <symbol id="icon-crash-weapon" viewBox="0 0 81.2 100">
        <path class="st0" d="M43,100c-1.6,0-3.2-0.5-4.7-1.6c-1.1-0.8-2.1-1.9-3.1-3.3c-1.7-2.3-3.2-5.2-4.6-7.7c-0.4-0.7-0.8-1.5-1.2-2.3
        c-0.8-1.4-2.5-1.8-3.8-0.9c0,0,0,0,0,0c-1.2,0.9-2.2,1.8-2.2,1.8l0,0c-1.3,1.3-3.5,1.3-4.8-0.1l-9.1-10c-1.4-0.2-2.6-0.6-3.5-1.2
        c-2.8-1.8-5-4.3-5.1-4.4l0,0c-1.1-1.2-1.1-3.1,0-4.4L9.5,56c0.3-0.4,1-0.2,1.1,0.2l0.5,1.7c0.2-0.5,0.4-1.1,0.6-1.6
        c0.5-0.9,1.3-2.5,28.5-29.3c13.3-13.1,26.5-26,26.7-26.1l0,0c1.2-1.2,3.2-1.2,4.5-0.1L80,8.4c1.4,1.2,1.5,3.4,0.2,4.8l-4.8,5
        c-0.7,0.7-0.6,1.9,0.1,2.5l0.2,0.2c1.1,1,1.2,2.7,0.2,3.8l-6.2,6.6c-1.5,1.6-1.5,4.1,0,5.8l0,0c0.2,0.2,0.2,0.6,0,0.8L50.9,56.5
        c-4.2,4.2-4.2,11-0.1,15.3L61,82.1c1.2,1.2,1.3,3.1,0.2,4.4l0,0c-0.1,0.1-2.7,3.2-6,6.4c-2,1.9-3.9,3.4-5.6,4.6
        c-1.3,0.9-2.5,1.5-3.6,1.9C45,99.8,44,100,43,100z M45.1,75.4C39,69.2,39,59.1,45.2,52.9l15.3-15.3c0.2-0.2,0.2-0.6,0-0.8l0,0
        c-1.5-1.5-1.5-4,0-5.5l6.4-6.8c0.7-0.8,0.7-2-0.1-2.7l0,0c-1.2-1-1.2-2.8-0.2-3.9l4.6-4.8c1-1,0.9-2.7-0.2-3.7l0,0
        c-1-0.9-2.5-0.8-3.4,0.1c-4.8,4.7-13.4,13.1-22.2,21.7c-7.7,7.5-13.9,13.8-18.5,18.4c-5.3,5.4-7.7,7.9-8.7,9.1
        c-0.9,1-1,2.4-0.3,3.5c0,0,0,0,0,0c0,0,0,0,0,0l0,0c1.4,1.7,0.6,4.3-1.5,5l-0.2,0.1c-0.3,0.1-3.5,1.1-6.7-0.3l0,0
        c-0.4-0.2-0.9-0.1-1.2,0.2l-0.2,0.3c-0.2,0.3-0.2,0.6,0.1,0.9c0,0,0,0,0.1,0.1c4.3,3.6,10.2,0.9,11.9,0c1.2-0.7,2.8,0,3.1,1.4
        c0.2,0.7,0,1.6-0.7,2.2l-4.1,3.5c-0.3,0.2-0.3,0.6-0.1,0.8l1.6,1.8c0.6,0.6,1.5,0.7,2.2,0.3l0,0c1.4-0.9,2.6-1.5,3.8-1.8
        c2.6-0.7,4.3,0,5.3,0.8c1.6,1.1,2.8,3.3,4.8,7.1c1.2,2.3,2.5,4.8,3.9,6.7c0.1,0.1,0.2,0.2,0.2,0.3c1.2,1.5,3.3,1.9,4.9,0.9
        c1.2-0.8,2.9-2,5.1-4.1c0.5-0.5,1-0.9,1.4-1.4c1.2-1.2,1.2-3.2,0-4.4L45.1,75.4z M18,62.2L18,62.2L18,62.2z M17.5,59.6L17.5,59.6
        L17.5,59.6z"/>
        <path class="st0" d="M40.7,46.8l-0.4-0.4c-1-1-1-2.6,0-3.6L51.2,32c1-1,2.6-1,3.6,0l0.4,0.4c1,1,1,2.6,0,3.6L44.3,46.8
        C43.3,47.8,41.7,47.8,40.7,46.8z"/>
    </symbol>

    <symbol id="icon-bank" viewBox="0 0 87.5 100">
        <path d="M43.8,100c-5.1,0-10.1,0-15.2,0c-4.3,0-8.6-0.3-12.8-0.9c-2.9-0.4-5.7-1.2-8.2-2.6C5,95,3,93,1.7,90.4
		c-1.1-2.2-1.5-4.6-1.7-7c-0.2-3,0.1-6.1,0.7-9c0.6-2.7,1.2-5.4,2-8c0.7-2.2,1.5-4.4,2.5-6.5c1.3-2.9,2.7-5.8,4.2-8.6
		c1.4-2.5,3.1-4.9,4.7-7.3c2.5-3.6,5.4-6.8,8.7-9.7c1-0.9,2-1.8,3-2.6c0.2-0.2,0.6-0.3,0.9-0.3c11.3,0,22.6,0,34,0
		c0.3,0,0.7,0.1,0.9,0.3c4.3,3.2,7.9,7.1,11.1,11.3c2.3,3.1,4.4,6.3,6.2,9.7c1.4,2.6,2.6,5.3,3.8,8.1c0.8,1.8,1.5,3.6,2,5.4
		c0.8,2.6,1.4,5.3,2,7.9c0.6,2.8,0.9,5.7,0.8,8.6c-0.1,2.5-0.4,4.9-1.4,7.2c-1.3,3-3.4,5.2-6.3,6.8C77,98,74,98.7,70.9,99.2
		c-7.1,1-14.2,0.9-21.3,0.8C47.6,99.9,45.7,99.9,43.8,100C43.8,100,43.8,100,43.8,100z M41.1,91.1C41.1,91.1,41.1,91.1,41.1,91.1
		c0,0.8,0,1.7,0,2.5c0,0.5,0.1,0.8,0.7,0.8c1.3,0,2.6,0,3.9,0c0.6,0,0.8-0.2,0.8-0.8c0-1.7,0-3.3,0-5c0-0.5,0.2-0.7,0.7-0.8
		c1-0.2,2.1-0.4,3.1-0.7c2.1-0.6,3.9-1.6,5.5-3.1c3-3,4.2-6.7,4-10.8c-0.2-3.6-1.6-6.7-4.5-9c-2.2-1.8-4.9-2.7-7.5-3.8
		c-2.2-0.9-4.4-1.8-6.6-2.8c-1.4-0.6-2.1-1.8-2.3-3.3c-0.2-2.6,1.6-5,4.3-5.3c1.8-0.2,3.4,0.2,4.8,1.4c1.2,1.1,2,2.5,2.6,3.9
		c0.3,0.7,0.5,0.8,1.2,0.6c0.7-0.3,1.4-0.6,2.1-0.9c1.3-0.6,2.7-1.1,4-1.7c0.4-0.1,0.5-0.3,0.3-0.7c-0.5-1.1-0.8-2.2-1.4-3.2
		c-2-3.8-5.3-5.8-9.5-6.4c-0.6-0.1-0.8-0.3-0.8-0.9c0-1.2,0-2.4,0-3.6c0-0.5-0.2-0.7-0.7-0.7c-1.3,0-2.5,0-3.8,0
		c-0.8,0-0.9,0-0.9,0.8c0,1.2,0,2.4,0,3.6c0,0.2-0.2,0.6-0.4,0.7c-0.7,0.2-1.4,0.3-2.1,0.5c-1.9,0.5-3.6,1.3-5,2.7
		c-2.5,2.4-3.9,5.4-4.1,8.9c-0.2,3.1,0.4,6,2.2,8.6c1.7,2.4,4.1,3.7,6.6,4.8c2.7,1.1,5.5,2.1,8.2,3.2c0.9,0.4,1.9,1,2.6,1.7
		c1.1,1.1,1.2,2.5,0.9,3.9c-0.3,1.8-1.3,3.1-3.1,3.8c-1.3,0.5-2.7,0.5-4,0.3C40,80.1,38,78.7,37,76.1c-0.3-0.7-0.5-1.5-0.7-2.3
		c-0.1-0.3-0.2-0.5-0.6-0.4c-1.4,0.4-2.9,0.8-4.3,1.1c-1,0.3-2,0.6-3.1,0.8c-0.3,0.1-0.5,0.2-0.4,0.6c0.5,1.8,1.1,3.5,2.1,5.2
		c1.1,1.9,2.6,3.5,4.5,4.6c1.9,1.1,3.9,1.7,6,2c0.5,0.1,0.6,0.3,0.6,0.7C41,89.4,41.1,90.2,41.1,91.1z"/>
        <path d="M43.7,18.8c-5.6,0-11.1,0-16.7,0c-0.5,0-1-0.1-1.4-0.5c-2.3-2.2-4.5-4.6-6.2-7.2c-1.1-1.7-2-3.5-2.3-5.6
		c-0.2-1.8,0.9-3.8,2.5-4.6c1.8-0.9,3.7-1,5.6-0.6c2.8,0.5,5.4,1.6,7.9,2.7c2.3,1.1,4.7,2.1,7,3.1c1.7,0.7,3.6,1.1,5.4,0.5
		c1.3-0.4,2.6-0.9,3.8-1.5c1.9-0.8,3.7-1.8,5.6-2.5c1.7-0.7,3.5-1.4,5.3-2c2.2-0.6,4.4-1,6.6-0.2c2,0.8,3.5,2.6,3.3,5
		c-0.3,2.3-1.3,4.2-2.6,6c-1.7,2.5-3.8,4.7-6,6.8c-0.4,0.4-0.8,0.5-1.3,0.5C54.9,18.8,49.3,18.8,43.7,18.8z"/>
        <path d="M43.7,28.2c-5.2,0-10.3,0-15.5,0c-1.9,0-3.5-1.7-3.2-3.7c0.2-1.3,1.5-2.5,2.8-2.6c0.1,0,0.3,0,0.4,0c10.4,0,20.7,0,31.1,0
		c1.9,0,3.3,1.5,3.2,3.4c-0.1,1.6-1.4,2.9-3,2.9c-2.4,0-4.8,0-7.2,0C49.4,28.2,46.6,28.2,43.7,28.2z"/>
    </symbol>

    <symbol id="icon-bet" viewBox="0 0 85.4 100">
        <path d="M56.2,42.9c0.1,0,0.2,0,0.3,0c3.5-0.1,6.9,0.2,10.4,0.9c4.3,0.9,8.6,2.1,12.6,4.7c1.9,1.2,3.6,2.6,4.9,4.9
        c0.4,0.6,0.6,1.3,0.9,2c0.1,0.2,0.1,0.4,0.1,0.6c0,10.5,0,21,0,31.5c0,0.3-0.1,0.6-0.2,0.9c-1,2.8-2.8,4.5-4.8,5.8
        c-3,2-6.2,3.2-9.4,4.1c-5.5,1.6-11,1.8-16.6,1.7c-5.5-0.1-11-1.2-16.3-3.3c-2-0.8-3.9-1.8-5.6-3.2c-2.1-1.7-3.8-3.7-4.1-7.3
        c-1,0-2-0.1-3-0.1c-4.4-0.2-8.8-0.9-13.1-2.3c-2.8-0.9-5.4-2.2-7.9-4.1c-1.1-0.9-2.2-1.8-2.9-3.2c-0.5-0.9-0.9-1.9-1.3-2.9
        C0,73.3,0,73,0,72.7c0-19.6,0-39.3,0-58.9c0-1.1,0.2-2.1,0.7-2.9c1.2-2.4,2.8-4,4.7-5.2c3-2,6.2-3.2,9.5-4.1C19.5,0.3,24.3,0,29,0
        c4.7,0,9.3,0.6,13.8,2.1c3.2,1,6.3,2.3,9.1,4.5c1.2,1,2.3,2.1,3.2,3.6c0.6,1.1,0.9,2.2,0.9,3.6c0,9.4,0.1,18.9,0.2,28.3
        C56.2,42.3,56.2,42.6,56.2,42.9z M57.9,66.9c3.6,0.1,7.6-0.3,11.6-1.3c2.6-0.6,5.2-1.4,7.7-2.8c1.4-0.8,2.8-1.8,3.9-3.3
        c1-1.5,1.1-2.8,0.1-4.3c-0.5-0.8-1.2-1.5-1.9-2.1c-1.8-1.5-3.8-2.3-5.9-3c-4.9-1.7-9.9-2.4-14.9-2.5c-5.5-0.1-10.9,0.4-16.3,1.9
        c-2.5,0.7-4.9,1.6-7.2,3.2c-0.9,0.6-1.8,1.4-2.5,2.5c-0.9,1.6-0.8,3,0.2,4.4c0.9,1.3,2.1,2.1,3.3,2.8c3.2,1.9,6.6,2.8,10,3.5
        C49.8,66.8,53.6,67,57.9,66.9z M27.9,23.4c3.4,0,6.8-0.3,10.2-0.9c2.9-0.5,5.7-1.2,8.4-2.4c1.7-0.8,3.4-1.6,4.7-3.2
        c1.6-1.8,1.6-3.8,0-5.6c-1.1-1.2-2.3-2-3.6-2.7c-3.9-2-8-3-12.1-3.3c-5.7-0.5-11.4-0.7-17,0.3C15.2,6,11.9,6.9,8.7,8.4
        c-1.5,0.7-3,1.7-4.2,3.2C3.3,13,3.3,15,4.4,16.5c0.4,0.5,0.8,0.9,1.2,1.2c2,1.7,4.3,2.6,6.6,3.4C17.4,22.8,22.6,23.3,27.9,23.4z
         M52.7,21c-0.4,0.3-0.7,0.4-0.9,0.6c-2.2,1.6-4.5,2.8-6.9,3.7c-4.4,1.6-8.9,2.5-13.5,2.6C26.1,28,21,28.1,15.9,26.7
        c-3.8-1-7.6-2.3-11.1-4.8c-0.4-0.3-0.9-0.6-1.3-0.9c0,0.3,0,0.4,0,0.6c0,2.4,0.1,4.8,0.1,7.2c0,1,0.3,1.8,0.8,2.5
        c0.8,1,1.7,1.7,2.6,2.3c2.4,1.5,5,2.4,7.6,3c3.7,1,7.4,1.4,11.2,1.5c4.9,0,9.9,0,14.7-1.2c2.7-0.7,5.3-1.5,7.9-2.9
        c1.1-0.6,2.2-1.3,3.1-2.4c0.5-0.7,1-1.4,1-2.5C52.6,26.6,52.6,23.9,52.7,21z M31.9,64.5c0,2.5,0,4.9,0,7.2c0,2,0.7,3.3,1.9,4.1
        c1.2,0.8,2.4,1.6,3.7,2.2c4.3,1.9,8.7,2.8,13.2,3.1c5.8,0.4,11.5,0.5,17.2-0.6c3.1-0.6,6.2-1.4,9.2-2.8c1.4-0.7,2.8-1.5,3.9-2.9
        c0.4-0.5,0.7-1.2,0.8-2c0.1-1.8,0.1-3.7,0.1-5.5c0-0.9,0-1.9,0-2.9c-0.3,0.2-0.4,0.3-0.6,0.4c-2.2,1.8-4.5,3-7,3.9
        c-5.1,1.9-10.2,2.8-15.5,3c-5.7,0.2-11.3-0.3-16.8-2c-3.4-1.1-6.7-2.4-9.8-4.9C32.3,64.7,32.1,64.6,31.9,64.5z M81.9,79.3
        c-0.2,0.2-0.4,0.2-0.5,0.4c-2.4,1.7-4.9,3-7.5,3.9c-5.1,1.8-10.3,2.5-15.5,2.6c-5,0.2-10.1-0.3-15-1.6c-3.8-1-7.4-2.4-10.8-4.9
        c-0.2-0.1-0.4-0.2-0.7-0.4c0.1,2.5,0.1,5,0.2,7.4c0,0.9,0.4,1.6,0.9,2.1c0.9,1,1.8,1.7,2.9,2.2c4.3,2.3,8.8,3.3,13.4,3.8
        c2.1,0.3,4.3,0.2,6.4,0.2c4,0,8,0.1,12-0.7c3.1-0.6,6.1-1.4,9-2.7c1.5-0.7,2.9-1.5,4.2-2.9c0.5-0.6,0.9-1.3,1-2.3
        c0-0.6,0.1-1.2,0.1-1.9C81.9,83,81.9,81.2,81.9,79.3z M3.5,36.2c0,0.1-0.1,0.2,0,0.2c0,2.4,0.1,4.8,0.1,7.2c0,1,0.4,1.9,1.1,2.5
        c0.7,0.7,1.4,1.3,2.2,1.9c1.9,1.3,3.9,2,6,2.7c5.4,1.7,11,2.2,16.5,2.2c0.2,0,0.5-0.1,0.6-0.3c1.6-2.1,3.5-3.5,5.5-4.7
        c4.6-2.6,9.4-3.8,14.3-4.4c0.9-0.1,1.8-0.2,2.7-0.3c0-2.3,0-4.5,0-6.9c-0.3,0.2-0.5,0.3-0.7,0.5c-1.4,0.8-2.8,1.8-4.2,2.5
        c-5.1,2.6-10.5,3.5-15.9,3.9c-4.8,0.3-9.5,0.1-14.3-0.9c-4.3-0.9-8.5-2.3-12.4-5C4.5,36.8,4,36.5,3.5,36.2z M28.4,71.9
        c-0.2,0-0.3,0-0.4,0c-4.6-0.2-9.1-0.6-13.6-1.9c-3.7-1.1-7.3-2.4-10.6-5.1c-0.1-0.1-0.2-0.1-0.3-0.2c0,0.3,0,0.5,0,0.7
        c0,2.1,0.1,4.3,0.1,6.4c0,1,0.3,1.8,0.8,2.4c0.7,0.7,1.4,1.5,2.1,2c2.7,1.9,5.6,2.9,8.6,3.6c4.3,1,8.6,1.5,12.9,1.4
        c0.1,0,0.2,0,0.4,0C28.4,78.2,28.4,75.1,28.4,71.9z M28.3,57.5c-0.1,0-0.2,0-0.3,0c-4.3,0-8.7-0.5-12.9-1.6c-3.9-1-7.6-2.5-11.1-5.2
        c-0.2-0.1-0.3-0.2-0.6-0.4C3.5,53,3.5,55.5,3.6,58c0,0.8,0.3,1.5,0.8,2c0.7,0.7,1.4,1.5,2.1,2c2.1,1.5,4.4,2.4,6.7,3.1
        C18.1,66.5,23,67,28,67c0.1,0,0.2,0,0.3-0.1C28.3,63.8,28.3,60.7,28.3,57.5z"/>
    </symbol>

    <symbol id="icon-classic-percent" viewBox="0 0 84.6 100">
        <path d="M1.1,99.1L1.1,99.1c-1.4-1.3-1.5-3.6-0.3-5.1L78.7,1.9c1.2-1.5,3.4-1.6,4.8-0.3l0,0C84.9,3,85,5.2,83.7,6.7L5.9,98.8
		C4.6,100.3,2.5,100.4,1.1,99.1z"/>
        <path d="M24.3,0.2c-9.8-1.8-19,6.8-20.5,19.2s5.2,23.8,15,25.5c9.8,1.8,19-6.8,20.5-19.2S34.1,2,24.3,0.2z M19.7,37.4
		c-6.5-1.2-11-8.7-10-16.9S16.9,6.6,23.4,7.7c6.5,1.2,11,8.7,10,16.9S26.2,38.6,19.7,37.4z"/>
        <path d="M67.3,55.1c-9.8-1.8-19,6.8-20.5,19.2S52,98,61.8,99.8c9.8,1.8,19-6.8,20.5-19.2S77.1,56.9,67.3,55.1z M62.7,92.3
		c-6.5-1.2-11-8.7-10-16.9s7.1-13.9,13.6-12.7c6.5,1.2,11,8.7,10,16.9S69.2,93.4,62.7,92.3z"/>
    </symbol>

    <symbol id="icon-classic-history" viewBox="0 0 100 100">
        <path class="st1" d="M22.7,83.3c-3.7-1.1-6.3-3.4-6.3-8.2c0-0.1,0-0.2,0-0.3c0-16.5,0-33,0-49.4c0-2.6,0.9-4.8,2.9-6.6
        c1.6-1.5,3.6-2.2,5.8-2.3c1.7,0,3.4,0,5,0c14.9,0,29.8,0,44.6,0c3.6,0,6.3,1.6,8,4.8c0.7,1.2,1,2.6,1,4c0,5.6,0,11.2,0,16.8
        c0,0.9-0.4,1.7-1.2,2.1c-0.8,0.4-1.6,0.3-2.3-0.2c-0.5-0.4-0.8-0.9-0.8-1.5c0-0.2,0-0.4,0-0.5c0-5.5,0-11,0-16.4
        c0-2.9-2.3-4.7-4.7-4.7c-16.4,0-32.9,0-49.3,0c-2.2,0-4,1.3-4.5,3.3c-0.1,0.4-0.2,0.8-0.2,1.3c0,16.5,0,33.1,0,49.6
        c0,2.3,1.1,4.5,4.7,4.5c5.3,0,10.6,0,15.9,0c1.1,0,2,0.6,2.2,1.6c0.3,1.4-0.7,2.7-2.1,2.7c-1.4,0-2.7,0-4.1,0c-3.8,0-7.5,0-11.3,0
        C23.9,83.6,23,83.3,22.7,83.3z"/>
        <path class="st1" d="M62.9,41.9c11.4,0,20.7,9.3,20.7,20.7c0,11.5-9.3,20.7-20.8,20.7c-11.4,0-20.7-9.3-20.7-20.8
        C42.1,51.2,51.4,41.9,62.9,41.9z M62.9,79.1c9.1,0,16.5-7.4,16.4-16.5c0-9.1-7.4-16.4-16.5-16.4c-9.1,0-16.4,7.4-16.4,16.5
        C46.4,71.7,53.8,79.1,62.9,79.1z"/>
        <path class="st1" d="M50,31.9c6.1,0,12.2,0,18.3,0c0.6,0,1.2,0.1,1.7,0.5c0.7,0.6,0.9,1.5,0.6,2.3c-0.3,0.8-1.1,1.4-2,1.4
        c-0.1,0-0.2,0-0.3,0c-12.3,0-24.5,0-36.8,0c-0.8,0-1.4-0.2-1.9-0.9c-0.5-0.7-0.6-1.4-0.2-2.2c0.4-0.8,1-1.2,1.8-1.2
        c0.2,0,0.3,0,0.5,0C37.9,31.9,43.9,31.9,50,31.9z"/>
        <path class="st1" d="M35,47.6c1.2,0,2.5,0,3.7,0c0.9,0,1.7,0.6,1.9,1.4c0.3,0.8,0,1.7-0.6,2.3c-0.4,0.4-0.9,0.5-1.5,0.5
        c-2.3,0-4.7,0-7,0c-1.2,0-2.1-0.8-2.2-2c-0.1-1,0.6-2,1.6-2.3c0.2-0.1,0.5-0.1,0.7-0.1C32.7,47.6,33.8,47.6,35,47.6
        C35,47.6,35,47.6,35,47.6z"/>
        <path class="st1" d="M33.6,63.4c0.7,0,1.4,0,2.1,0c1.3,0,2.2,0.9,2.2,2.2c0,1.2-1,2.1-2.2,2.1c-1.4,0-2.8,0-4.2,0
        c-1.2,0-2.1-0.8-2.2-2c-0.1-1,0.6-2,1.7-2.3c0.2,0,0.4-0.1,0.7-0.1C32.2,63.4,32.9,63.4,33.6,63.4L33.6,63.4z"/>
        <path class="st1" d="M60.7,60.3c0-1.4,0-2.8,0-4.2c0-0.9,0.4-1.6,1.3-2c0.8-0.4,1.6-0.2,2.2,0.3c0.5,0.4,0.8,1,0.8,1.7
        c0,2.2,0,4.4,0,6.6c0,0.3,0.1,0.4,0.2,0.6c1.4,1.4,2.8,2.8,4.1,4.2c1.1,1.2,0.6,3.1-0.9,3.5c-0.8,0.2-1.5,0.1-2.1-0.5
        c-1.9-1.9-3.7-3.7-5.5-5.6c-0.1-0.1-0.1-0.3-0.1-0.4C60.7,63.2,60.7,61.7,60.7,60.3z"/>
    </symbol>

    <symbol id="icon-send" viewBox="0 0 100 99.7">
        <path d="M69.1,49.9c-1.1-0.2-2.3-0.4-3.4-0.6c-3.6-0.6-7.2-1.2-10.8-1.8c-3.1-0.5-6.1-1-9.2-1.5c-3.5-0.6-7-1.2-10.5-1.8
        c-3-0.5-6-1-9-1.5c-4-0.7-8-1.4-12.1-2c-1.2-0.2-1.5-0.7-1.8-1.7c-1.7-4.7-3.5-9.3-5.2-14c-1.5-4.1-3-8.2-4.6-12.3
        c-0.7-2-1.4-4-2.2-5.9C-1,3.5,1.5,0.3,4.9,0c1.2-0.1,2.4,0.1,3.5,0.7c6.4,3.2,12.9,6.5,19.3,9.7c9.5,4.8,18.9,9.5,28.4,14.3
        c13.7,6.9,27.3,13.7,41,20.6c2.5,1.2,3.6,4.1,2.5,6.5c-0.4,1-1.2,1.7-2.1,2.1c-9.4,4.7-18.7,9.4-28.1,14.1
        c-7.7,3.9-15.4,7.7-23.1,11.6c-9.9,5-19.7,9.9-29.6,14.9c-3,1.5-6.1,3.1-9.1,4.6c-2.8,1.4-5.8,0.5-7.1-2.1C0,95.5,0,94,0.6,92.6
        c1.9-5.1,3.8-10.1,5.7-15.2c2.2-5.8,4.3-11.6,6.4-17.4c0.1-0.4,0.3-0.6,0.8-0.7c6.9-1.1,13.9-2.3,20.8-3.5c8-1.3,16-2.7,24-4
        c3.5-0.6,6.9-1.1,10.4-1.7c0.2,0,0.3-0.1,0.5-0.1C69.1,50,69.1,49.9,69.1,49.9z"/>
    </symbol>

    <symbol id="icon-deposit" viewBox="0 0 100 91.7">
        <path d="M19.2,34.7c1.5,0,2.8,0,4.1,0c1.8,0,3.1,0.7,4,2.2c0.9,1.5,0.8,3.1-0.1,4.6c-3.1,5.3-6.2,10.7-9.3,16
        c-1.9,3.2-6.1,3.2-7.9,0c-3.1-5.3-6.3-10.7-9.4-16c-1.8-3.1,0.3-6.7,3.8-6.8c1.6,0,3.2,0,4.8,0c0.3,0,0.5-0.1,0.6-0.5
        c3.1-11.4,9.5-20.3,19.4-26.8c8.5-5.6,17.9-8,28.1-7.3c20,1.3,36.9,15.7,41.5,35.3c6,25.2-10.3,50.6-35.8,55.4
        c-15.8,3-29.5-1.4-41.1-12.4c-1.6-1.5-1.9-3.5-1.1-5.3c0.8-1.7,2.5-2.8,4.5-2.7c1.2,0.1,2.2,0.6,3,1.4c5.1,5,11,8.3,18,9.8
        c19.8,4.5,39.6-8.2,43.8-28c4-18.7-6.6-37-24.8-42.8c-19-6-39.3,4.2-45.8,23C19.4,34.1,19.3,34.3,19.2,34.7z"/>
        <path d="M55.6,72.9h-2.1c-1.2,0-2.1-0.9-2.1-2c0-1.1,0-2.5,0-3.5c0,0,0-0.1,0-0.1l0,0c-0.1,0-0.3,0-0.4-0.1
        c-1.3-0.2-2.5-0.6-3.7-1.2c-1.8-0.9-3.3-2-4.5-3.5c-1.2-1.6-2-3.2-2.5-4.6c-0.5-1.3,0.3-2.7,1.7-3c0.7-0.1,1.4-0.3,2.1-0.4
        c1.2-0.2,2.3,0.4,2.7,1.5c0,0,0,0,0,0c0.4,1.2,1,2.2,1.9,3c0.7,0.7,1.6,1.2,2.5,1.6c0,0,0.1,0,0.1,0c0,0,0,0,0,0V47.8l0,0
        c-0.1,0-0.2,0-0.3-0.1c-1.1-0.3-2.2-0.6-3.2-1c-1.6-0.6-3.1-1.5-4.3-2.8c-0.7-0.7-1.3-1.5-1.8-2.4c-0.7-1.4-1-2.9-1.1-4.4
        c0-0.6,0-1.2,0.1-1.8c0.1-1,0.3-2,0.7-2.9c1-2.6,2.8-4.7,5.2-6.2c1.3-0.8,2.8-1.3,4.4-1.6c0.1,0,0.3-0.1,0.4-0.2c0,0,0,0,0,0l0-3.6
        c0-1.1,0.9-2,2.1-2h2.1c1.2,0,2.1,0.9,2.1,2v3.8l0,0c0.1,0,0.3,0,0.4,0.1c0.5,0.2,1.1,0.3,1.6,0.5c1.9,0.7,3.6,1.6,5,3
        c1,0.9,1.8,2,2.5,3.2c0,0,0,0,0,0c0.8,1.4-0.1,3.2-1.7,3.6c-0.5,0.1-1.1,0.3-1.6,0.4c-1.1,0.3-2.3-0.2-2.8-1.1
        c-0.2-0.4-0.4-0.7-0.6-0.9c-0.7-0.9-1.6-1.6-2.6-2.1c-0.1,0-0.1,0-0.2-0.1l0,0c0,0.1,0,0.1,0,0.2c0,2.6,0,5.2,0,7.8
        c0,1.2,0,2.5,0,3.7c0,0.1,0,0.2,0,0.3c0,0.1,0,0.1,0.1,0.1c0.2,0,0.3,0.1,0.5,0.1c1.4,0.4,2.7,0.9,4,1.7c1.1,0.6,2.1,1.3,3,2.2
        c0.9,0.9,1.6,1.9,2.2,3c0.7,1.4,1.1,2.8,1.1,4.3c0,0,0.1,1.3-0.2,2.7c-0.3,1.8-1.1,3.4-2.2,4.8c-1,1.3-2.2,2.3-3.6,3.2
        c-1.5,0.9-3,1.6-4.7,1.9c-0.1,0-0.1,0-0.2,0c0,0,0,0,0,0c0,0.1,0,0.1,0,0.2c0,1.2,0,2.3,0,3.5l0,0C57.7,72,56.8,72.9,55.6,72.9z
        M57.7,49.7C57.7,49.8,57.7,49.8,57.7,49.7c0,3.7,0,7.4,0,11c0,0,0,0,0,0c0,0,0,0,0,0c0,0,0.1,0,0.1,0c0.5-0.2,0.9-0.5,1.4-0.8
        c1-0.6,1.7-1.5,2.2-2.5c0.5-1,0.7-2,0.5-3.1c-0.2-1.2-0.8-2.2-1.7-3c-0.7-0.6-1.5-1.2-2.4-1.6C57.8,49.8,57.7,49.7,57.7,49.7z
        M51.4,41.5c0-0.4,0-10.1,0-10.3l0,0c0,0-0.1,0-0.1,0c-0.5,0.2-0.9,0.4-1.3,0.7c-1,0.6-1.8,1.5-2.2,2.6c-0.3,0.9-0.4,1.8-0.3,2.8
        c0.1,1.1,0.6,2,1.4,2.7c0.6,0.5,1.2,0.9,1.9,1.2C50.9,41.3,51.1,41.4,51.4,41.5C51.4,41.5,51.4,41.5,51.4,41.5z"/>
    </symbol>

    <symbol id="icon-wheel" viewBox="0 0 85.4 100">
        <path d="M48,1.8c0.2,1.4,0.4,2.8,0.5,4.2c0,1.4-0.2,2.8-0.3,4.2c19.4,2.9,30.8,21,28.6,38.4c-2,16.1-15,28.6-31.5,29.8
		c-15.6,1.2-31.4-8.6-35.9-25.9C7.5,45.2,8,37.8,11.1,30.8c5.1-11.4,14-18.1,26-20.5c-0.1-1.5-0.3-2.9-0.2-4.3
		c0-1.4,0.3-2.7,0.4-4.1C18.7,3.7,0.1,20.6,0,43.9C-0.1,67.3,18.1,86.2,41.4,87C64,87.8,83.7,70.2,85.3,47.8
		C87.1,22.7,69.4,4.5,48,1.8z"/>
        <path d="M13.7,55.9c-0.4,0.2-1.1,0.5-1.1,0.5s0.4,0.7,0.6,1c1.3,2.4,2.5,4.6,4.1,6.7c3.3,4.4,7.6,7.6,12.8,9.9
		c4.2-9.9,8.4-19.7,12.7-29.7c-3.5,1.4-6.7,2.7-9.9,3.9C26.4,50.8,20,53.4,13.7,55.9z"/>
        <path d="M31.1,15.3c-0.2-0.4-0.4-1-0.4-1s-0.7,0.3-1.1,0.5c-2.5,1.4-4.6,2.5-6.7,4.1c-4.4,3.3-7.6,7.6-9.9,12.8
		c9.9,4.2,19.7,8.4,29.7,12.7c-1.4-3.5-2.7-6.7-3.9-9.9C36.2,28,33.6,21.7,31.1,15.3z"/>
        <path d="M68.1,64.1c1.5-2.1,2.8-4.3,4.1-6.7c0.2-0.4,0.6-1,0.6-1s-0.7-0.3-1.1-0.5c-6.4-2.5-12.8-5.1-19.1-7.7
		c-3.2-1.3-6.4-2.5-9.9-3.9c4.3,10,8.5,19.8,12.7,29.7C60.6,71.7,64.9,68.5,68.1,64.1z"/>
        <path d="M62.5,18.8c-2.1-1.5-4.1-2.7-6.7-4.1c-0.4-0.2-1.1-0.5-1.1-0.5s-0.3,0.6-0.4,1c-2.5,6.4-5.1,12.8-7.7,19.1
		c-1.3,3.2-2.5,6.4-3.9,9.9c10-4.3,19.8-8.5,29.7-12.7C70.1,26.3,66.9,22.1,62.5,18.8z"/>
        <path d="M67.1,93.7c-16.7,0-33.5,0-50.2,0c-0.7,0-1.4,0-2,0.2c-2.5,0.7-3.5,2.9-2.7,6.1c19.8,0,39.7,0,59.6,0c0-1.1,0.1-2.2,0-3.2
		C71.5,94.9,69.7,93.7,67.1,93.7z"/>
        <path d="M22.7,83.3c-1.2,3.1-2.3,6.1-3.5,9.1c15.2,0,30.2,0,45.4,0c-1.1-2.9-2.1-5.6-3.2-8.4C48.4,89.9,35.5,89.5,22.7,83.3z"/>
        <path d="M43.9,15.9c2.7-4,4.3-8.2,3.1-13.1c-0.4-1.6-1.3-2.5-2.9-2.7C43-0.1,41.8,0,40.7,0.2c-1.2,0.2-2,1.1-2.2,2.3
		c-1.3,5.7,0.4,10.5,4.2,15C43.1,16.9,43.5,16.4,43.9,15.9z"/>
    </symbol>

    <symbol id="icon-qiwi" viewBox="0 0 96.7 100">
        <ellipse transform="matrix(0.8287 -0.5596 0.5596 0.8287 -24.2784 54.4593)" cx="76.8" cy="66.9" rx="1.8" ry="3.1"/>
        <ellipse transform="matrix(0.4513 -0.8924 0.8924 0.4513 -28.7605 101.2795)" cx="68" cy="74" rx="3.1" ry="4.2"/>
        <path d="M82.4,67.3c-0.8-5-2.4-9.4-5.9-12.9C73,51,68.7,49.1,63.9,48c0.4-0.1,0.8-0.2,1.2-0.2c2.4,0,4.8,0.1,7.2,0.1
		c1.3,0,1.4,0.1,1.5-1.3c0.5-8.9-2.1-16.8-8.5-23.2c-4.5-4.5-9.8-7.5-16.2-8.4c-11.4-1.6-22.2,2.2-29,13c-5.8,9.1-6.4,18.9-2.2,28.6
		c4.2,9.5,11.7,15.3,22,17.1c1.6,0.3,3,0.3,4.9,0.4c0.7,0,0.9-0.3,0.9-0.9c-0.1-1.5-0.2-3-0.3-4.5c0-1.3,0.3-4.1,0.4-4.1
		c0.3,0.4,0.6,0.8,0.9,1.3c2,3.2,4.3,6.1,7.1,8.6c3.7,3.4,8.2,5.3,13,6.5c3.6,1,7.3,1.9,10.9,3.1c6.2,2.1,11.2,6,15.5,10.7
		c1,1.1,2,2.3,3,3.4c0.4,0.4,0.7,0.9,0.2,1.4c-0.5,0.5-1,0.2-1.5-0.2c-2.8-2.5-5.8-4.8-9.1-6.7c-5.1-2.9-10.6-4.7-16.6-5.1
		c-5.1-0.4-10.2,0-15.3,0.6c-7.6,0.8-15.2,1-22.6-1.4c-12-3.8-21-11.2-26.7-22.5C0.7,56.7-0.6,48.5,0.3,40
		C1.6,26.8,7.7,16.1,18.4,8.2c6.3-4.6,13.4-7.3,21.1-8c10.5-1,20.4,1.1,29.3,6.8c8.9,5.6,14.9,13.5,18.1,23.4
		c2.8,8.7,3,17.5,0.4,26.3c-1,3.5-2.8,6.8-4.6,10C82.7,66.9,82.6,67,82.4,67.3z"/>
    </symbol>

    <symbol id="icon-skin" viewBox="0 0 100 97.3">
        <path d="M73.6,36.9c0-6.2-5.4-11.3-11.7-11.3c-6.4,0-11.5,5.1-11.6,11.2c0,6.2,5.2,11.3,11.6,11.3C68.3,48.2,73.6,43.1,73.6,36.9z
		 M53.1,36.9c0-4.7,3.9-8.5,8.7-8.5c4.9,0,8.9,3.8,8.9,8.5c0,4.6-3.9,8.4-8.7,8.5C57.1,45.4,53.1,41.6,53.1,36.9z"/>
        <path d="M94.1,25.7C83.3,6.2,61.3-2.2,42.4,0.5C20.9,3.6,3.7,19.9,0.1,41.2c-0.2,1.4,0.2,1.9,1.4,2.3c7.5,3,14.9,6,22.3,9.1
		c0.3,0.1,0.6,0.2,0.8,0.3c2.4-2,5.5-3.2,8.9-3.2c0.5,0,1,0,1.5,0.1c3.1-4,6.1-8.1,9.1-12.3c0.4-0.6,0.7-1.4,0.8-2.1
		c0.8-7.5,6.3-13.4,14-14.8c7.5-1.4,15.2,2.3,18.5,9.1c5.1,10.1-1.6,22.3-13,23.6c-2,0.2-3.6,0.8-5.1,2c-3.6,2.7-7.4,5.4-11.1,8
		c-0.3,0.2-0.6,0.5-0.8,0.7c-0.2,7.4-6.3,13.4-13.8,13.4c-6.3,0-11.6-4.2-13.3-10c-1.1-1.2-14.5-6.6-19.9-8.8c1.2,3.3,2,6.3,3.2,9
		c11.7,26.8,44.8,37.8,70.9,23.5C98.2,78.1,107,49.1,94.1,25.7z"/>
        <path d="M39.5,66.7c-1.4,3.5-5.5,5.2-9.1,3.8l-6-2.5c1.6,3.4,5,5.7,9,5.7c5.5,0,9.9-4.4,9.9-9.9c0-5.5-4.4-9.9-9.9-9.9
		c-1.2,0-2.3,0.2-3.4,0.6l6,2.4c3.5,1.4,5.2,5.5,3.8,9.1L39.5,66.7z"/>
    </symbol>

    <symbol id="icon-fk" viewBox="0 0 100 91.3">
        <path d="M92.7,80.6c-4.5-6.7-8.8-13.6-13.4-20.3c-3.4-5-7.2-9.9-10.7-14.8c-0.5-0.7-1-1.5-0.3-2.6c5.4-7.7,11-15.3,16.4-22.9
		C87.4,16,90.1,12,92.8,8c1.7-2.5,3.3-5,5.4-8c-5.3,0-9.9,0-14.6,0.1c-0.5,0-1,0.6-1.4,1.1C79.5,5.1,76.8,9.1,74,13
		c-3.5,5.1-7.1,10.1-10.7,15.2c-5,7-10.1,13.9-15,20.9c-1.1,1.5-2.5,3.4-2.5,5.1c-0.2,11.6-0.1,23.3-0.1,34.9c0,1.5,0.7,2.2,2.2,2.2
		c2,0,4,0,6.1,0c3.4,0,3.5-0.1,3.5-3.6c0-10.3,0-20.7,0-31c0-1.2,0-2.8,0-4.1c1.2,1.3,2.3,2.7,3,3.7c3.6,4.8,6.9,9.9,10.3,14.9
		c4.1,6.1,8.2,12.4,12.3,18.5c0.5,0.8,1.7,1.6,2.5,1.6c4,0.2,7.9,0.1,11.9,0c0.6,0,2.4,0,2.4,0S94.8,83.9,92.7,80.6z"/>
        <path d="M65.9,7.5c1.7-2.5,3-4.4,4.9-7.2c-1.7,0-31-0.1-45,0C6.9,0,0,0.8,0,23.3c0,4.9,0,9.8,0,14.7c0.2,0.1,5-5.1,7-7
		c4.8-4.8,5.4-5.5,5.6-13.1c0.1-5.4,2.3-6.9,6.9-6.9c12.8,0,25.7-0.1,38.5,0C61.4,11.1,63.2,11.5,65.9,7.5z"/>
        <path d="M33.5,41.6c0-1.5-0.5-2.2-2.1-2.2c-5.8,0-11.6,0-17.5,0.1c-0.9,0-2,0.6-2.5,1.3C8.3,44.9,5.2,49,2.3,53.2
		c-1.1,1.5-2.1,2.8-2.1,5.3C0,68.4,0.1,78.4,0,88.3c0,1.7,0.8,2.3,2.4,2.3c2.3,0,4.7-0.1,7,0.1c2.2,0.1,2.8-0.8,2.7-2.8
		c-0.1-5.7,0-11.5,0-17.2c0,0,0,0,0,0c0-5.7,0-11.5,0-17.2c0-3.2,0.3-3.5,3.4-3.5c5.2,0,10.3-0.1,15.5,0c1.8,0,2.5-0.7,2.4-2.4
		C33.4,45.5,33.5,43.6,33.5,41.6z"/>
    </symbol>

    <symbol id="icon-free-cassa" viewBox="0 0 98 100">
        <path d="M94.6,41.7c-4.2-3.5-6.7-8-7.6-13.3c-0.5-2.8-0.5-5.6-0.8-8.5c-0.4-3.8-3.1-6.7-6.8-7.5c-1.1-0.2-2.3-0.4-3.5-0.4
		c-5.7-0.2-11-1.8-15.8-5c-2.4-1.5-4.5-3.4-6.8-5.1c-3.6-2.8-7.7-2.7-11,0.3c-0.8,0.7-1.6,1.5-2.4,2.2c-3.7,3.4-8,5.7-12.8,6.8
		c-2.6,0.6-5.2,0.8-7.8,1.2c-4.2,0.6-7,3.3-7.7,7.4c-0.2,1.1-0.2,2.2-0.2,3.4c-0.1,6.3-2,12-5.8,17c-1.4,1.8-3,3.5-4.2,5.4
		c-1.7,2.7-1.7,5.5-0.1,8.3c0.7,1.1,1.6,2.1,2.4,3.2c1.6,2.4,3.4,4.8,4.7,7.3c2.3,4.3,2.9,9.1,2.8,13.9c0,2.5,0.6,4.7,2.4,6.5
		c2,2.1,4.5,2.6,7.2,2.9c3.5,0.3,7,0.8,10.4,2c4.7,1.7,8.7,4.6,12.4,7.9c2.9,2.7,6.9,3,10.2,0.8c1.2-0.8,2.3-1.7,3.3-2.6
		c3.6-3,7.4-5.6,11.9-6.9c3.4-1,7-1.7,10.5-2.4c4.5-0.8,7.5-3.8,8.2-8.2c0.3-1.9,0.3-3.9,0.3-5.8c0-6.2,1.6-11.6,6.6-15.6
		c0.1-0.1,0.2-0.2,0.2-0.2c2.3-2.1,3.3-4.7,3.2-7.3C98,45.7,97.3,44,94.6,41.7z M49.1,82.1C31.4,82.1,17,67.8,16.9,50
		C16.8,32.4,31.3,17.9,49,17.9c17.7,0,32,14.2,32.1,32.1C81.3,67.6,66.8,82,49.1,82.1z"/>
        <path d="M49.3,20.5c-16.2-0.2-29.6,12.9-29.8,29.4c-0.2,16.1,13,29.4,29.3,29.6C65.1,79.7,78.5,66.6,78.5,50
		C78.6,33.8,65.6,20.7,49.3,20.5z M30.5,56.5l-6.4-6.4l6.4-6.4V56.5z M63.7,46.4c-0.6,0-1,0-1.4,0c-3.7,0-7.4,0-11.1,0
		c-2.3,0-3.8,1.5-3.8,3.8c0,2.2,1.6,3.8,3.8,3.8c3.7,0,7.3,0,11,0c0.4,0,0.8,0,1.4,0c0,2,0,3.9,0,5.9c0,0.7-0.6,1-1.2,1.1
		c-0.4,0-0.8,0-1.2,0c-8.4,0-16.9,0-25.3,0c-2.4,0-2.7-0.3-2.7-2.7c0-5.6,0-11.1,0-16.7c0-1.9,0.4-2.3,2.3-2.3c8.7,0,17.3,0,26,0
		c1.9,0,2.3,0.4,2.3,2.3C63.7,43.2,63.7,44.7,63.7,46.4z M52.9,50.3c0,0.9-0.6,1.3-1.4,1.4C50.8,51.8,50,51,50,50.2
		c0-0.8,0.7-1.5,1.5-1.5C52.3,48.7,53,49.4,52.9,50.3z M66.4,56.5L66.4,56.5C66.4,56.4,66.4,56.4,66.4,56.5c0-4.4,0-8.4,0-12.7
		c0,0,0,0,0,0v-0.1l6.4,6.4L66.4,56.5z"/>
    </symbol>

    <symbol id="icon-yandex" viewBox="0 0 61.4 100">
        <path d="M32.9,61.2c-1.5,0-2.9,0.1-4.2,0C23.1,60.9,18,59.1,13.5,56C6.6,51.3,2.3,44.8,0.6,36.6C-2.7,20.5,7.8,4.4,23.8,0.8
        C39-2.6,53.9,5.4,59.4,20c1.6,4.2,2.2,8.6,1.8,13.1c-0.5,6.4-2.5,12.3-5,18.1c-3.7,8.4-8.3,16.3-13.3,24
        c-5.3,8.2-10.7,16.3-16.1,24.5c-0.1,0.1-0.1,0.2-0.3,0.2C28.7,87.1,30.8,74.2,32.9,61.2z M30.7,18c-7,0-12.6,5.6-12.6,12.5
        c0,7,5.6,12.7,12.6,12.7c7,0,12.6-5.6,12.6-12.5C43.3,23.7,37.7,18,30.7,18z"/>
    </symbol>

    <symbol id="icon-close" viewBox="0 0 100 99.9">
        <path d="M52,0C22.5-1,0.9,22.5,0,48.1c-1,29.4,23,52.3,50,51.9c27.4,0.3,49-22,50-47.8C101.1,22.5,77.5,0.9,52,0z M93.2,50
		c0,23.8-19.3,43.2-43.2,43.2C26.2,93.1,6.8,73.8,6.8,50C6.8,26.1,26.2,6.8,50,6.8C73.8,6.8,93.2,26.1,93.2,50z"/>
        <path d="M55.5,50l17.2-17.2c1.5-1.5,1.5-4,0-5.5h0c-1.5-1.5-4-1.5-5.5,0L50,44.5L32.8,27.3c-1.5-1.5-4-1.5-5.5,0
		c-1.5,1.5-1.5,4,0,5.5L44.5,50L27.3,67.1c-1.5,1.5-1.5,4,0,5.5c1.5,1.5,4,1.5,5.5,0L50,55.5l17.2,17.2c1.5,1.5,4,1.5,5.5,0h0
		c1.5-1.5,1.5-4,0-5.5L55.5,50z"/>
    </symbol>

    <symbol id="icon-step" viewBox="0 0 97 100">
        <path class="st0" d="M1,99c-1.2-1.2-1.3-2.5-0.4-4.4c3.1-6.3,6.3-12.5,9.4-18.8c4.3-8.6,8.6-17.2,12.9-25.8c0.5-0.9,0.4-1.6,0-2.4
        C16.1,33.5,9.4,19.4,2.6,5.3C1.8,3.5,1.9,2,3,0.9c1.2-1.1,2.7-1.2,4.5-0.3C36.4,16,65.3,31.2,94.2,46.5c0.7,0.4,1.4,0.8,1.9,1.3
        c1.5,1.7,0.9,4.1-1.3,5.3c-4.5,2.4-9.1,4.7-13.7,7.1C56,73.2,30.8,86.2,5.6,99.3C3.6,100.3,2.2,100.2,1,99z M86.4,49.9
        c-24.6-13-48.9-25.9-73.5-38.9c0.3,0.6,0.4,1,0.6,1.3C18.5,23,23.6,33.6,28.6,44.2c0.5,1.1,1.1,1.5,2.4,1.5c9.7,0.1,19.3,0.3,29,0.4
        c1.4,0,2.6,0.4,3.4,1.6c0.7,1.1,0.7,2.3,0,3.4c-0.8,1.3-2,1.7-3.5,1.7c-9.7-0.2-19.5-0.3-29.2-0.5c-1,0-1.6,0.3-2,1.2
        c-5.7,11.4-11.3,22.8-17,34.1c-0.2,0.3-0.3,0.7-0.5,1.3C36.2,75.9,61.2,63,86.4,49.9z"/>
    </symbol>

    <symbol id="icon-alert" viewBox="0 0 100 99.8">
        <path d="M58.1,27.4c0.2-2-0.2-3.9-1.3-5.6c-0.9-1.4-2.2-2.2-3.9-2.1c-1,0-1.9,0-2.9,0c-1,0-1.9,0-2.9,0c-1.8-0.1-3.1,0.8-4.1,2.3
		c-1.2,2-1.4,4.2-1.2,6.4c0.4,3.5,0.7,7,1.1,10.6c0.3,3.2,0.7,6.3,1,9.5c0.2,2.4,0.5,4.7,0.7,7.1c0.2,1.7,0.6,3.3,1.6,4.8
		c1.7,2.4,5.6,2.4,7.3,0c0.9-1.2,1.4-2.6,1.5-4c0.3-2.9,0.6-5.9,0.9-8.8c0.4-3.5,0.7-7,1.1-10.6C57.5,33.7,57.8,30.6,58.1,27.4z"/>
        <path d="M49.8,66.5c-3.6,0-6.6,3-6.6,6.8c0,3.8,2.9,6.8,6.6,6.9c3.7,0,6.7-3,6.7-6.8C56.4,69.6,53.4,66.5,49.8,66.5z"/>
        <path d="M84.9,13.9C65.5-5,33.3-4.6,14.3,14.8c-19.2,19.6-19.1,51,0.3,70.4C28,98.4,46.9,102.7,63.8,97.8c2.8-0.8,3.8-4.4,1.7-6.5
		l0,0c-1-1-2.5-1.4-3.8-1c-14.2,4-30.1,0.5-41.3-10.6C3.9,63.5,3.7,36.9,19.7,20.3C36.2,3.4,63.2,3.3,79.9,19.9
		c11.2,11.2,14.8,27.2,10.7,41.5c-0.4,1.4,0,2.9,1,3.9c2.1,2.1,5.7,1.2,6.5-1.7C103,46.4,98.6,27.3,84.9,13.9z"/>
    </symbol>

    <symbol id="icon-refresh" viewBox="0 0 100 99.3">
        <path d="M81.6,11C64.7-2.7,41.4-3.4,23.9,7.7l-5.5-4.5c-2.6-2.1-6.3,0-6,3.3l1.8,17c0.2,2,2,3.5,4.1,3.3l17-1.8
		c3.3-0.3,4.5-4.5,1.9-6.5l-6-4.9c14-7.5,31.8-6.4,45,4.2C88.9,28.1,93.8,44.5,90,59.4c-0.4,1.7,0.2,3.4,1.5,4.5h0
		c2.5,2,6.2,0.8,7-2.4C103,43.5,97.1,23.6,81.6,11z"/>
        <path d="M86.5,74.8c-0.3-2-2.1-3.5-4.1-3.2l-17,2.2c-3.3,0.4-4.4,4.6-1.8,6.6l6.1,4.7c-13.8,7.9-31.6,7.2-45.1-3.1
		c-13-10-18.3-26.3-14.9-41.3c0.4-1.7-0.2-3.4-1.6-4.4c-2.5-2-6.2-0.6-6.9,2.5c-4.1,18.2,2.4,38,18.2,50.1
		c17.3,13.3,40.6,13.4,57.8,1.9l5.6,4.3c2.6,2,6.3-0.1,5.9-3.4L86.5,74.8z"/>
    </symbol>

    <symbol id="icon-support" viewBox="0 0 82.4 100">
        <path d="M39.3,73.9c0.6-1.1,3.2-1.1,3.9,0c1.3-0.7,2.6-1.5,3.8-2.2c2.3-1.3,4.6-2.7,7-4c0.3-0.2,0.7-0.2,1-0.2
		c3.2-0.1,6.2,0.6,9.1,1.8c2.1,0.8,4.2,1.6,6.3,2.3c4.1,1.5,6.9,4.3,8.3,8.5c1.1,3.3,2.2,6.6,3.3,9.9c1.1,3.4-0.2,7.1-3.2,8.9
		c-1.2,0.8-2.5,1.2-4,1.2c-12.4,0-24.8,0-37.2,0c-10,0-20,0-29.9,0c-4.4,0-7.9-3.5-7.7-7.9c0.1-1.3,0.6-2.6,1-3.9c1-3,1.9-5.9,3-8.9
		c1.3-3.5,3.8-6,7.3-7.4c3.3-1.3,6.7-2.5,10.1-3.7c2.1-0.7,4.3-0.7,6.4-0.7c0.2,0,0.5,0.2,0.7,0.3c3.5,2,7,4.1,10.5,6.1
		C39.1,73.8,39.2,73.9,39.3,73.9z"/>
        <path d="M70.1,45.3c0,0.2,0,0.4,0,0.6c-0.1,1.7-1.1,2.7-2.8,2.7c-0.9,0-1.7,0-2.6,0c-1.6,0-2.6-1-2.6-2.6c0-0.2,0-0.3,0-0.6
		c-0.6,1.5-1.1,2.9-1.7,4.2C58.1,55,54.7,59.5,50,63c-0.2,0.2-0.4,0.6-0.4,0.8c0.3,1.5-0.4,2.3-1.7,3c-2.1,1.1-4.2,2.4-6.2,3.5
		c-0.2,0.1-0.6,0.1-0.8,0c-2.5-1.4-5-2.9-7.5-4.3c-0.3-0.2-0.6-0.4-0.5-0.8c0.2-1.3-0.3-2.2-1.4-3c-5-3.9-8.3-9-10.5-15
		c-0.2-0.6-0.4-1.2-0.7-1.8c0,0.3,0,0.5,0,0.8c0,1.4-1,2.4-2.4,2.4c-0.9,0-1.8,0-2.7,0c-1.7,0-2.8-1.1-2.8-2.8c0-0.2,0-0.4,0-0.4
		c-0.8,0-1.7,0.1-2.5,0c-1.3-0.1-2.3-1.2-2.3-2.5c0-3.3,0-6.6,0-9.9c0-1,0.8-2.1,1.8-2.3c0.5-0.1,0.6-0.4,0.6-0.8
		c0.7-4.6,2.1-8.9,4.3-13c0.6-1,1.2-2,1.8-3c-0.6-0.8-0.4-1.6,0.2-2.4c4.9-6.1,11.2-9.8,19-11c5.9-1,11.7-0.6,17.3,1.3
		c5.6,1.9,10.2,5.3,13.8,10c0.4,0.6,0.5,1.1,0.2,1.8c-0.1,0.2-0.1,0.5,0,0.7c3.1,4.5,4.8,9.6,5.8,14.9c0,0.2,0.1,0.4,0.1,0.6
		c0,0.5,0.2,0.7,0.7,0.9c1.1,0.3,1.8,1.4,1.8,2.5c0,3.1,0,6.2,0,9.4c0,1.8-1.2,2.9-3,2.8C71.3,45.4,70.8,45.3,70.1,45.3z M41.2,56.9
		c0.4,0.2,0.7,0.4,1,0.6c0.3,0.2,0.7,0.3,1,0.4c3.7,0.9,6.9-0.3,9.2-3.2c5-6.2,7.2-13.5,7.1-21.5c0-0.7-0.2-1-0.9-1.2
		c-4.9-1.7-10-2.4-15.1-2.6c-3.2-0.1-6.3,0-9.5,0.4c-3.6,0.4-7.1,1.1-10.5,2.3c-0.4,0.1-0.5,0.3-0.6,0.8c-0.2,5.1,0.8,9.9,2.7,14.6
		c0.1,0.3,0.3,0.5,0.5,0.7c1.5,1.2,3.1,2.1,4.8,2.7c1.8,0.6,3.7,1,5.6,1c0.4-1.3,1.3-1.7,2.6-1.6c1.5,0.1,3,0,4.4,0
		c1.2,0,2,0.8,2.1,2c0,0.6,0,1.3,0,1.9c-0.1,1.1-0.9,1.9-2,2c-1.5,0-3,0-4.4,0c-1.3,0.1-2.2-0.3-2.7-1.6c-2.8-0.1-5.5-0.6-8.2-1.9
		C31.7,58.3,37.7,59.5,41.2,56.9z M12.8,28c0.1,0,0.1,0.1,0.2,0.1c0.8-0.9,1.9-0.9,3-0.8c1,0,2.1,0,3.1,0c0.4,0,0.5-0.1,0.6-0.5
		c0.2-0.7,0.4-1.4,0.6-2c2.1-6.6,6.4-11.2,12.9-13.5c4.8-1.7,9.7-1.9,14.6-0.4c4.3,1.3,8,3.5,10.8,7.1c2,2.6,3.2,5.6,4.1,8.8
		c0.1,0.5,0.3,0.6,0.8,0.6c1.1,0,2.2,0,3.2,0c1,0,2,0.1,2.8,0.8c-0.3-1.3-0.6-2.6-1-3.8c-0.9-3-2.2-5.8-4-8.4
		c-0.1-0.2-0.4-0.4-0.6-0.4c-0.8,0.2-1.3-0.1-1.8-0.7c-3.2-4.1-7.2-6.9-12.2-8.4c-3.7-1.1-7.5-1.4-11.4-1.1c-3.7,0.3-7.2,1.2-10.5,3
		c-3,1.6-5.5,3.8-7.7,6.5c-0.4,0.5-0.9,0.9-1.6,0.7c-0.4-0.1-0.6,0-0.8,0.4c-1,2-2.2,4-3.1,6C14,23.9,13.5,26,12.8,28z"/>
    </symbol>

    <symbol id="icon-ticket" viewBox="0 0 100 100">
        <path d="M69.5,0H30.5C13.7,0,0,13.7,0,30.5v38.9C0,86.3,13.7,100,30.5,100h10c2.4,0,4.3-1.9,4.3-4.3c0-2.4-1.9-4.3-4.3-4.3h-10
		c-12.1,0-21.9-9.8-21.9-21.9V30.5c0-12.1,9.8-21.9,21.9-21.9h38.9c12.1,0,21.9,9.8,21.9,21.9v9.9c0,2.4,1.9,4.3,4.3,4.3
		s4.3-1.9,4.3-4.3v-9.9C100,13.7,86.3,0,69.5,0z"/>
        <path d="M95.2,70.2H79.8V54.8c0-2.7-2.2-4.8-4.8-4.8s-4.8,2.2-4.8,4.8v15.4H54.8c-2.7,0-4.8,2.2-4.8,4.8v0c0,2.7,2.2,4.8,4.8,4.8
		h15.4v15.4c0,2.7,2.2,4.8,4.8,4.8s4.8-2.2,4.8-4.8V79.8h15.4c2.7,0,4.8-2.2,4.8-4.8v0C100,72.3,97.8,70.2,95.2,70.2z"/>
    </symbol>

    <symbol id="icon-ticket-list" viewBox="0 0 100 87.5">
        <path d="M94.4,12.5H5.6C2.5,12.5,0,10,0,6.9l0-1.3C0,2.5,2.5,0,5.6,0l88.8,0c3.1,0,5.6,2.5,5.6,5.6v1.3C100,10,97.5,12.5,94.4,12.5
        z"/>
        <path d="M94.4,50H5.6C2.5,50,0,47.5,0,44.4l0-1.3c0-3.1,2.5-5.6,5.6-5.6h88.8c3.1,0,5.6,2.5,5.6,5.6v1.3C100,47.5,97.5,50,94.4,50z
        "/>
        <path d="M94.4,87.5H5.6C2.5,87.5,0,85,0,81.9l0-1.3C0,77.5,2.5,75,5.6,75h88.8c3.1,0,5.6,2.5,5.6,5.6v1.3
        C100,85,97.5,87.5,94.4,87.5z"/>
    </symbol>

    <symbol id="icon-list" viewBox="0 0 97 100">
        <path d="M86,86c2,2.1,4,4.1,5.9,6.2c1.5,1.6,3.1,3.3,4.6,4.9c0.8,0.9,0.6,1.9-0.4,2.5c-0.6,0.4-1.1,0.4-1.7-0.1
		c-0.6-0.5-1.1-1-1.6-1.5c-3-3-5.9-6.1-8.9-9.1c-0.2-0.2-0.3-0.4-0.5-0.6c-4.8,3.5-10,4.7-15.7,3.3c-4.8-1.2-8.6-4-11.4-8.1
		c-5.1-7.5-4-18,3.4-24.4c7.3-6.4,17.8-6,24.7,0.1C91.4,65.4,94,76.8,86,86z M72.2,58.1c-8.5-0.3-15.5,6.7-15.5,15.5
		c0,7.9,6.2,15.1,15.3,15.2c8.4,0.1,15.5-6.8,15.5-15.4C87.5,64.6,80.3,57.7,72.2,58.1z"/>
        <path d="M63.8,24.6c-5.3,0-10.6,0-15.8,0c-0.8,0-1.2-0.4-1.5-1c-0.3-0.6-0.2-1.2,0.2-1.8c0.3-0.5,0.7-0.7,1.3-0.7
		c8.4,0,16.8,0,25.2,0.1c2.2,0,4.4,0.1,6.6,0.1c1,0,1.6,1,1.3,2c-0.2,0.8-0.8,1.2-1.6,1.2C74.2,24.6,69,24.6,63.8,24.6z"/>
        <path d="M63.7,49.1c-5.3,0-10.6,0-15.8,0c-1.2,0-2-1.4-1.4-2.4c0.3-0.5,0.7-0.9,1.5-0.9c10.5,0,21.1,0,31.6,0c0.8,0,1.2,0.4,1.5,1
		c0.3,0.6,0.2,1.2-0.2,1.7c-0.3,0.5-0.7,0.7-1.4,0.7C74.2,49,69,49.1,63.7,49.1z"/>
        <path d="M37.3,38.6c-0.1,0.3-0.2,0.6-0.4,0.8c-2.2,2.7-4.5,5.4-6.7,8.1c-1.6,1.9-3.3,3.8-5,5.7c-1.1,1.3-1.6,1.4-3,0.4
		c-2.7-1.9-5.3-3.9-7.9-5.9c-0.6-0.5-0.7-1.3-0.2-2.1c0.5-0.7,1.2-1,1.9-0.6c0.8,0.5,1.6,1,2.4,1.5c1.5,1.1,3,2.1,4.5,3.2
		c0.4,0.3,0.6,0.2,0.8-0.1c3.4-4,6.8-7.9,10.2-11.9c0.6-0.7,1.2-1.1,2.1-0.8C36.8,37.2,37.2,37.9,37.3,38.6z"/>
        <path d="M23.2,25.7c1.4-1.7,2.8-3.3,4.2-4.9c2.3-2.6,4.5-5.2,6.7-7.8c1.1-1.3,2.4-0.6,2.9,0.4c0.1,0.2,0.1,0.6,0,0.9
		c-0.3,0.5-0.6,1.1-0.9,1.5c-3.8,4.5-7.7,8.9-11.5,13.4c-0.4,0.4-0.8,0.8-1.4,0.6c-0.2-0.1-0.5-0.1-0.6-0.3c-2.5-1.9-5-3.7-7.5-5.6
		c-0.4-0.3-0.7-0.6-1-1c-0.5-0.6-0.4-1.3,0.2-2c0.5-0.6,1.2-0.7,1.8-0.3c1.4,1,2.8,2,4.2,3C21.3,24.3,22.2,25,23.2,25.7z"/>
        <path d="M23.3,76.5c1.2-1.4,2.4-2.8,3.6-4.2c2.3-2.7,4.7-5.4,7-8c0.2-0.2,0.4-0.4,0.5-0.5c0.6-0.6,1-0.7,1.7-0.3
		c0.7,0.3,1.1,1,1,1.7c0,0.2-0.2,0.5-0.3,0.7c-2.5,3-4.9,6-7.5,9c-1.5,1.8-3,3.5-4.5,5.2c-0.9,1-1.2,1.1-2.3,0.3
		c-1.8-1.2-3.5-2.5-5.2-3.8c-1-0.8-2-1.6-3-2.5c-0.7-0.6-0.7-1.3-0.3-2c0.5-0.7,1.3-1,2-0.6c0.7,0.4,1.3,0.8,2,1.3
		c1.6,1.2,3.2,2.3,4.8,3.5C23,76.3,23.1,76.4,23.3,76.5z"/>
        <path d="M45.9,90.9H23.8C12.9,90.9,4,82,4,71.1V23.8C4,12.9,12.9,4,23.8,4h47.9c10.9,0,19.8,8.9,19.8,19.8v33.8c0,1.1,0.9,2,2,2h0
		c1.1,0,2-0.9,2-2V23.8C95.5,10.7,84.9,0,71.7,0H23.8C10.7,0,0,10.7,0,23.8v47.3c0,13.1,10.7,23.8,23.8,23.8h22.1c1.1,0,2-0.9,2-2
		l0,0C47.9,91.8,47,90.9,45.9,90.9z"/>
    </symbol>

    <symbol id="icon-ticket-refresh" viewBox="0 0 100 91.1">
        <path d="M97.3,29.9C90.7,12.1,73.9,0.2,54.9,0c-6.6-0.1-13,1.2-19,4c-2.5,1.1-3.5,3.8-2.3,6.2c1.1,2.3,3.6,3.1,6.3,1.9
        c18.6-7.9,39.7,0.3,48.1,19c0.3,0.7,0.7,1.8,1.1,3c0.3,1,0.6,2,0.9,3c3.1,15-1,27.8-13.1,37.2C64.6,83.8,51,84.8,37.2,77.8
        c-9.1-4.7-14.8-12.1-17.7-21.5l6.5-2.9c2.6-1.2,2.5-4.8-0.2-5.8l-15.6-5.9c-1.6-0.6-3.5,0.2-4.1,1.8L0.2,59c-1,2.6,1.7,5.2,4.3,4
        l6.6-3c1.4,4.1,3.3,8,5.8,11.6c14.2,20,40.8,25.4,61.6,12.5C96.7,72.8,104.6,49.9,97.3,29.9z"/>
    </symbol>

    <symbol id="icon-ticket-ready" viewBox="0 0 99.7 100">
        <path d="M49.2,90c22.4,0,40-17.5,40.5-39.6c0.1-3.2,1.9-5.3,4.8-5.4c3-0.1,5.2,2.1,5.2,5.1c0,7.3-1.5,14.2-4.5,20.8
		c-8.7,18.9-28.1,30.4-48.9,29C23,98.3,3.6,80.1,0.5,56.9c-3.6-26.6,13.8-50.8,40.1-56c7.1-1.4,14.2-1.1,21.3,0.6
		c2.7,0.7,4.4,3.4,3.7,6c-0.7,2.7-3.3,4.3-6,3.7C47,8.4,35.4,10.3,25.3,18.4C12.1,29,7,43,11,59.5c4,16.3,14.9,26.1,31.3,29.8
		c1.1,0.2,2.2,0.4,3.4,0.5C47.1,89.9,48.4,90,49.2,90z"/>
        <path d="M49.7,57.7c0.4-0.5,0.7-0.8,1.1-1.2c9.9-11.4,19.7-22.8,29.5-34.2c1.5-1.7,3.2-2.5,5.4-1.9c3.6,1,4.8,5.3,2.4,8.2
		c-3.7,4.3-7.5,8.6-11.3,13c-7.6,8.7-15.3,17.4-22.9,26.2c-2.7,3-5.5,3.1-8.3,0.3c-4.7-4.7-9.5-9.5-14.2-14.2
		c-2.6-2.6-2-6.7,1.3-8.2c2-0.9,4.1-0.5,5.8,1.1c3.5,3.4,7,6.9,10.5,10.3C49.1,57.1,49.4,57.4,49.7,57.7z"/>
    </symbol>

    <symbol id="icon-details-send" viewBox="0 0 100 99.7">
        <path d="M69.1,49.9c-1.1-0.2-2.3-0.4-3.4-0.6c-3.6-0.6-7.2-1.2-10.8-1.8c-3.1-0.5-6.1-1-9.2-1.5c-3.5-0.6-7-1.2-10.5-1.8
        c-3-0.5-6-1-9-1.5c-4-0.7-8-1.4-12.1-2c-1.2-0.2-1.5-0.7-1.8-1.7c-1.7-4.7-3.5-9.3-5.2-14c-1.5-4.1-3-8.2-4.6-12.3
        c-0.7-2-1.4-4-2.2-5.9C-1,3.5,1.5,0.3,4.9,0c1.2-0.1,2.4,0.1,3.5,0.7c6.4,3.2,12.9,6.5,19.3,9.7c9.5,4.8,18.9,9.5,28.4,14.3
        c13.7,6.9,27.3,13.7,41,20.6c2.5,1.2,3.6,4.1,2.5,6.5c-0.4,1-1.2,1.7-2.1,2.1c-9.4,4.7-18.7,9.4-28.1,14.1
        c-7.7,3.9-15.4,7.7-23.1,11.6c-9.9,5-19.7,9.9-29.6,14.9c-3,1.5-6.1,3.1-9.1,4.6c-2.8,1.4-5.8,0.5-7.1-2.1C0,95.5,0,94,0.6,92.6
        c1.9-5.1,3.8-10.1,5.7-15.2c2.2-5.8,4.3-11.6,6.4-17.4c0.1-0.4,0.3-0.6,0.8-0.7c6.9-1.1,13.9-2.3,20.8-3.5c8-1.3,16-2.7,24-4
        c3.5-0.6,6.9-1.1,10.4-1.7c0.2,0,0.3-0.1,0.5-0.1C69.1,50,69.1,49.9,69.1,49.9z"/>
    </symbol>

    <symbol id="icon-footer-crash" viewBox="0 0 100 100">
        <path d="M95,46.7C94,35.6,89.7,26,81.9,18.1C74,10.3,64.5,6,53.3,5c0-1.7,0-3.3,0-5c-2.2,0-4.4,0-6.6,0c0,1.6,0,3.3,0,5
		C35.6,6,26,10.3,18.1,18.1C10.3,26,6,35.5,5,46.7c-1.7,0-3.3,0-5,0c0,2.2,0,4.4,0,6.6c1.6,0,3.3,0,5,0C6,64.4,10.3,74,18.1,81.9
		C26,89.7,35.5,94,46.7,95c0,1.7,0,3.3,0,5c2.2,0,4.4,0,6.6,0c0-1.7,0-3.3,0-5c11.1-1,20.7-5.3,28.5-13.1C89.7,74.1,94,64.5,95,53.3
		c1.7,0,3.3,0,5,0c0-2.2,0-4.4,0-6.6C98.4,46.7,96.7,46.7,95,46.7z M86,53.3c-0.8,15-13.4,31-32.6,32.8c0-2.5,0-5,0-7.5
		c-2.3,0-4.4,0-6.6,0c0,2.5,0,5,0,7.4C31.6,85.1,15.7,72.4,14,53.3c2.5,0,5,0,7.5,0c0-2.2,0-4.3,0-6.6c-2.5,0-5,0-7.4,0
		c0.8-15.1,13.5-31,32.7-32.8c0,2.5,0,5,0,7.5c2.2,0,4.4,0,6.6,0c0-2.5,0-5,0-7.4C68.5,14.9,84.4,27.7,86,46.7c-2.5,0-5,0-7.5,0
		c0,2.3,0,4.4,0,6.6C81,53.3,83.5,53.3,86,53.3z"/>
        <circle cx="47.4" cy="52.1" r="2.6"/>
        <path d="M50,28.5c-12.6,0-22.9,10.2-22.9,22.9c0,8.6,4.8,16.1,11.8,20c2.4-3.8,5.2-7.4,7.8-11.1c1.3-1.8,2.9-3.3,4.2-5.1
		c1.6-2.2,1.6-5-0.3-6.6c-1.5-1.3-3.7-1.5-5.5-0.5l0,0c0,0-2.1,1-2.8,3.1c-0.5,1.5-0.3,2.7,0.5,4.2c0.6,1.1-0.2,2.7-1.9,3.5
		c-1.5,0.7-5.3,0.8-6.3-2.8c-1.1-4,4-7.1,4-7.1c-1.5-0.9-3.2-1.6-4.5-2.4c0.7-0.6,1.4-1,2.1-1.3c0.1,0,0.2-0.1,0.3-0.1
		c0.1,0,0.2-0.1,0.3-0.1c0.1,0,0.2-0.1,0.4-0.1c0.2,0,0.3-0.1,0.5-0.1c0,0,0.1,0,0.1,0c0.5,0,1,0,1.5,0.1c0.8,0.2,1.4,0.4,2.1,0.5
		c1.2,0,2-1.4,3.2-3.3c2.5-4,4.7-6.7,8-7.9c0.9-0.3,1.8-0.5,2.6-0.6c2.5-0.3,4.7,0.1,4.7,0.1s-2.7,1.1-4.2,2.3
		c-2.1,1.5-2.6,2.8-2.6,2.8s4.5-2.6,9.8-1.1c3.7,1.1,4.9,3.4,4.9,3.4s-1.5-0.6-4.1-0.5c-1.5,0.1-2.7,0.3-3.5,0.5c-0.2,0-0.3,0-0.3,0
		s0.1,0,0.1,0c-0.7,0.2-1.2,0.4-1.6,0.6c2.4,0.1,3.6,0.2,4.9,0.5c2.5,0.6,3.6,1.5,3.9,1.7c-0.4,0.8-3.1,3.9-4.1,6
		c-2.5,5.1-4.8,11.6-0.7,20.4c0.4-0.3,0.9-0.6,1.4-1c5.3-4.2,8.8-10.7,8.8-18C72.9,38.8,62.6,28.5,50,28.5z M47.4,48.7
		c1.9,0,3.4,1.5,3.4,3.4c0,1.9-1.5,3.4-3.4,3.4s-3.4-1.5-3.4-3.4C44.1,50.2,45.6,48.7,47.4,48.7z"/>
    </symbol>

    <symbol id="icon-footer-classic" viewBox="0 0 99.8 100">
        <path d="M95,44.1c-1.1-8.1-4.2-15.5-9-21.7c1.2-1.2,2.4-2.4,3.7-3.6c-2.8-2.8-5.7-5.7-8.2-8.2c-1.3,1.2-2.5,2.4-3.6,3.6
		C71.7,9.3,64.2,6.1,56.1,5c0-1.6,0-3.3,0-5v0H43.6v5c-8.2,1.1-15.6,4.4-21.8,9.3c-1.1-1.1-2.2-2.2-3.3-3.3
		c-2.5,2.5-5.5,5.3-8.4,8.1c1.2,1.2,2.4,2.3,3.5,3.5C9,28.8,5.9,36.1,4.8,44.2c-1.6,0-3.2,0-4.8,0c0,4.2,0,8,0,12.2
		c1.7,0,3.3,0,4.9,0c1.1,8,4.3,15.3,9.1,21.4c-1.1,1.1-2.2,2.3-3.4,3.4c2.6,2.9,5.4,6,7.5,8.4c1.3-1.3,2.6-2.5,3.9-3.7
		c6.2,4.8,13.7,8.1,21.8,9.2c0,1.6,0,3.3,0,5c4.2,0,8.3,0,12.3,0c0-1.7,0-3.3,0-5c8.1-1.1,15.5-4.3,21.7-9.1
		c1.3,1.3,2.5,2.5,3.9,3.9c2.6-2.5,5.4-5.3,8-7.8c-1.4-1.4-2.6-2.7-3.9-4c4.8-6.1,8.1-13.5,9.2-21.6c1.6,0,3.2,0,4.9,0
		c0-4.3,0-8.3,0-12.4C98.2,44.1,96.6,44.1,95,44.1z M49.9,84.1c-18.8,0-34.1-15.3-34.1-34.1s15.3-34.1,34.1-34.1
		C68.7,15.9,84,31.2,84,50S68.7,84.1,49.9,84.1z"/>
        <path d="M61.1,46.1c-0.5,0.2-1,0.1-1.4-0.3l-9-12.8c-0.4-0.6-1.4-0.6-1.8,0l-8.4,13c-0.3,0.5-0.9,0.6-1.4,0.4L26,39.7
		c-0.8-0.4-1.8,0.4-1.5,1.3L33,66.8c0.1,0.4,0.6,0.7,1,0.7h31.2c0.5,0,0.9-0.3,1-0.7l9-25.9c0.3-0.9-0.6-1.7-1.5-1.3L61.1,46.1z"/>
    </symbol>

    <symbol id="icon-footer-chat" viewBox="0 0 100 79.9">
        <path d="M100,36.3c-0.1,3-0.6,6-1.6,8.8c-1.7,4.9-4.5,9.1-8.2,12.7c-4,3.9-8.6,6.9-13.7,9.3c-3.4,1.6-6.9,2.7-10.5,3.6
		c-1.8,0.4-3.6,0.8-5.4,1c-3.1,0.5-6.2,0.8-9.3,0.8c-0.4,0-0.7,0.2-1.1,0.4c-1.8,1.3-3.8,2.2-5.9,3c-2,0.7-4.1,1.4-6.2,2
		c-1.5,0.5-3.1,0.8-4.7,1.1c-1.1,0.3-2.3,0.5-3.4,0.7c-1.5,0.3-3.1-0.5-3.3-2.2c-0.1-0.9-0.1-1.9,0-2.8c0.3-2.2,0-4.2-0.5-6.3
		c0-0.2-0.4-0.4-0.6-0.5c-3-1.2-5.9-2.7-8.7-4.4C12,60.4,7.7,56.4,4.4,51.3c-1.8-2.8-3-5.8-3.8-9.1c-0.6-2.6-0.8-5.3-0.6-8
		c0.3-3.3,1.1-6.6,2.6-9.6c2.6-5.6,6.6-10,11.5-13.6c2.7-2,5.5-3.8,8.6-5.1c2.7-1.2,5.4-2.2,8.1-3.1c2.1-0.7,4.2-1.2,6.4-1.6
		c2.9-0.6,5.9-1,8.9-1.1c1.1,0,2.1-0.2,3.2-0.1c2.8,0.1,5.7,0.3,8.5,0.5c2.9,0.2,5.7,0.8,8.5,1.5c4.4,1.1,8.6,2.6,12.6,4.7
		c5.1,2.6,9.6,6,13.4,10.3c2.6,3,4.6,6.3,5.9,9.9c0.7,2,1.3,4.1,1.4,6.2C99.8,34.2,99.9,35.3,100,36.3z M50.9,63.6
		c3.7-0.1,7.3-0.4,10.9-1.2c2.8-0.6,5.5-1.3,8.1-2.3c3.6-1.3,7-3.1,10.1-5.3c3.4-2.4,6.3-5.3,8.4-9c1.4-2.5,2.4-5.2,2.6-8.1
		c0.3-3.7-0.6-7.1-2.3-10.4c-2.2-4-5.4-7.2-9.1-9.8c-3.9-2.8-8.3-4.8-12.9-6.2c-3.4-1-6.8-1.8-10.4-2.1c-3-0.3-6-0.5-9-0.2
		c-2.1,0.2-4.2,0.3-6.3,0.6c-2.2,0.3-4.5,0.8-6.6,1.4c-3.6,1-7,2.4-10.3,4.2c-4.1,2.2-7.6,5-10.5,8.6c-2,2.5-3.5,5.3-4.2,8.5
		c-0.7,3-0.5,6,0.3,8.9c0.9,3.1,2.5,5.9,4.7,8.3c3.4,4,7.6,6.9,12.4,9c2.2,1,4.4,1.8,6.6,2.7c0.3,0.1,0.5,0.5,0.6,0.8
		c0.2,0.6,0.3,1.2,0.5,1.8c0.4,1.6,0.8,3.3,1.1,4.9c0.1,0.3,0.1,0.4,0.5,0.3c1.3-0.4,2.7-0.8,4-1.3c2.1-0.8,4.3-1.6,6-3.1
		c1.3-1.1,2.6-1.6,4.3-1.3C50.5,63.6,50.7,63.6,50.9,63.6z"/>
        <path d="M50,29.8c3.4,0,6.1,2.7,6,6.2c-0.1,3.2-2.7,5.8-5.9,5.8c-3.5,0-6.1-2.7-6.1-6.1C44,32.5,46.8,29.8,50,29.8z"/>
        <path d="M71.6,29.8c3.3,0,6,2.6,6,5.9c0,3.3-2.5,6-6,6c-3.4,0-5.8-2.7-6-5.5C65.4,32.4,68.4,29.8,71.6,29.8z"/>
        <path d="M34.4,35.8c0,3.1-2.5,6-6,6c-3.2,0-5.9-2.7-5.9-6c0-3.4,2.6-6,6.1-6C31.6,29.8,34.4,32.5,34.4,35.8z"/>
    </symbol>

    <symbol id="icon-footer-bonus" viewBox="0 0 89.9 99.3">
        <path d="M88.5,65.2c-1.5-4.7-3.7-9.3-6.8-14.4C77,43.4,71.2,35,63.2,27.9c0.1-0.3,0.2-0.6,0.4-0.9l2.1-5.3c1.6-4,3.2-7.9,4.7-11.9
		C71.6,6.9,71,4,68.8,2c-2.2-2.1-5-2.5-7.9-1.2c-1.5,0.7-3.2,1.3-4.9,1.9c-6,2.1-11.4,2.6-16.5,1.5c-3.5-0.8-6.9-1.9-10-3.3
		c-1.1-0.5-2.8-1.1-4.8-0.7c-2.2,0.5-3.9,1.8-4.8,3.6c-1,1.9-1.1,4.1-0.2,6.3c2.7,6.8,5,12.5,7.2,17.9c-0.9,0.7-1.8,1.5-2.8,2.6
		c-3.8,3.8-7.1,8-9.4,11.1C9,49,5.2,55.5,2.6,62C0.3,67.5-0.4,72.3,0.3,77c0.9,5.9,3.4,10.9,7.6,14.9c5.1,5,11.4,7.5,18.7,7.5
		c0,0,0.1,0,0.1,0c4.3,0,8.5,0,12.8,0l10.6,0c4.5,0,9,0,13.5,0c0,0,0,0,0,0c3,0,5.9-0.4,8.5-1.3c5.5-1.8,9.9-5.2,13.2-9.9
		c2.8-3.9,4.3-8.4,4.6-13.3C90,71.8,89.6,68.6,88.5,65.2z M50.5,89.9l-5.5,0c-2,0-3.9,0-5.9,0c-4.4,0-9,0-13.6,0
		c-4.2,0-7.9-1.6-11-4.6c-3.5-3.5-5.2-7.7-5-12.7c0.1-2.8,1.2-5.5,2.2-8C14.7,57.7,19,51,25.2,43.4c3.2-4,5.9-6.7,8.6-9
		c1.1-0.9,2.1-1.3,3.4-1.3c5,0.1,10.2,0.1,15.8,0c1.2,0,2.1,0.3,3.2,1.2c3.1,2.6,5.8,5.6,8,8.2c4.2,5,7.8,10.2,10.8,15.5
		c1.8,3.2,3.9,7.1,4.9,11.4c1.5,6.2,0,11.4-4.7,15.9c-3.1,3-6.9,4.5-11.7,4.5c0,0,0,0-0.1,0c-2.5,0-5,0-7.5,0
		C54.1,89.9,52.3,89.9,50.5,89.9z M56.8,18.5c-0.7,1.7-1.4,3.5-2.1,5.2c-3.6,0-7.3,0-10.9,0c-2.7,0-5.4,0-8.1,0h-0.4
		c-1.6-4.1-3.2-8.2-4.9-12.2c9.7,3.5,19.5,3.5,29.3,0L56.8,18.5z"/>
        <path d="M54.1,60.1c-2.1-1.5-4.5-2.3-6.3-2.8c0,0,0,0,0,0c0-2.4,0-4.8,0-7.2v-2.7c1.8,0.5,2.7,1.6,2.9,3.6c0.1,0.6,0.2,1.3,0.5,1.9
		c0.6,1.2,2,1.7,3.4,1.4c1.3-0.3,2.1-1.5,2.1-3c0.1-4.8-2.9-8.3-8-9.5c-0.2,0-0.5-0.1-0.7-0.1c-0.1,0-0.2,0-0.2,0c0-0.1,0-0.2,0-0.3
		c0-0.2,0-0.5,0-0.7c-0.1-0.7-0.1-1.7-1.1-2.3c-0.9-0.6-1.9-0.7-2.8-0.3c-0.9,0.4-1.5,1.3-1.6,2.3c0,0.4,0,0.9,0,1.3
		c-2.1,0.3-4,1-5.7,2.3c-3.9,2.9-4.9,9.2-2.2,13.1c1.5,2.1,3.7,3.2,5.2,3.8c0.8,0.3,1.5,0.6,2.3,0.8c0.1,0,0.2,0.1,0.3,0.1v10.8
		c-2.4-0.6-3.7-1.9-4.1-4c-0.1-0.4-0.1-0.9-0.2-1.4c0-0.4-0.1-0.9-0.1-1.3c-0.2-1.4-1.4-2.4-2.8-2.4c0,0,0,0,0,0
		c-1.5,0-2.7,1.1-2.8,2.5c-0.1,1.5,0,2.8,0.2,3.9c0.6,3.2,2.2,5.5,4.8,6.9c1.4,0.8,3.1,1.3,5,1.6c0,0.8,0,1.5,0,2.1
		c0.1,0.9,0.5,1.7,1.1,2.1c0.4,0.3,1,0.5,1.6,0.5c0.3,0,0.6,0,0.9-0.1c0.9-0.2,1.9-0.9,2-2.8c0-0.6,0-1.2,0-1.7
		c0.1,0,0.2-0.1,0.3-0.1c0.7-0.2,1.5-0.4,2.2-0.6c5.1-1.9,7.8-5.8,7.4-10.9C57.6,63.9,56.4,61.7,54.1,60.1z M47.9,63.2
		c2.3,0.5,3.8,2.3,3.8,4.6c0,2.1-1.7,4-3.8,4.5V63.2z M42.3,47.4v8.2C40.6,55,39,53.8,39,51.5C39.1,49.5,40.4,48,42.3,47.4z"/>
    </symbol>

    <symbol id="icon-footer-more" viewBox="0 0 100 100">
        <path d="M57.6,49.9c-0.2,4.2-3.1,7.6-7.6,7.6c-4.1,0.1-7.5-3-7.6-7.4c-0.1-4.3,3-7.7,7.6-7.7C54.2,42.4,57.3,45.5,57.6,49.9z"/>
        <path d="M18.2,50c0.2-4.4,3.3-7.6,7.6-7.6c4.3,0,7.5,3.2,7.5,7.5c0,4.3-3.1,7.6-7.6,7.6C21.4,57.6,18.3,54.3,18.2,50z"/>
        <path d="M81.8,50c-0.2,4.3-3.4,7.6-7.6,7.5c-4.5,0-7.6-3.4-7.5-7.6c0-4.4,3.3-7.5,7.6-7.5C78.7,42.5,81.6,45.7,81.8,50z"/>
        <path d="M50,0C22.4,0,0,22.4,0,50c0,27.6,22.4,50,50,50c27.6,0,50-22.4,50-50C100,22.4,77.6,0,50,0z M50,91.1
		C27.3,91.1,8.9,72.7,8.9,50C8.9,27.3,27.3,8.9,50,8.9S91.1,27.3,91.1,50C91.1,72.7,72.7,91.1,50,91.1z"/>
    </symbol>

    <symbol id="icon-" viewBox="0 0 100 100">

    </symbol>


</svg>
